<svg xmlns="http://www.w3.org/2000/svg" width="14" height="10.97" viewBox="0 0 14 10.97">
  <metadata><?xpacket begin="﻿" id="W5M0MpCehiHzreSzNTczkc9d"?>
<x:xmpmeta xmlns:x="adobe:ns:meta/" x:xmptk="Adobe XMP Core 5.6-c138 79.159824, 2016/09/14-01:09:01        ">
   <rdf:RDF xmlns:rdf="http://www.w3.org/1999/02/22-rdf-syntax-ns#">
      <rdf:Description rdf:about=""/>
   </rdf:RDF>
</x:xmpmeta>
                                                                                                    
                                                                                                    
                                                                                                    
                                                                                                    
                                                                                                    
                                                                                                    
                                                                                                    
                                                                                                    
                                                                                                    
                                                                                                    
                                                                                                    
                                                                                                    
                                                                                                    
                                                                                                    
                                                                                                    
                                                                                                    
                                                                                                    
                                                                                                    
                                                                                                    
                                                                                                    
                           
<?xpacket end="w"?></metadata>
<defs>
    <style>
      .cls-1 {
        fill: #fff;
        fill-rule: evenodd;
      }
    </style>
  </defs>
  <path id="Like_Icon" data-name="Like Icon" class="cls-1" d="M143.923,3277.33a3.714,3.714,0,0,0-4.618,1.33h0a0.041,0.041,0,0,1-.009.01h0a0.372,0.372,0,0,1-.611,0h0a0.081,0.081,0,0,1-.009-0.01h0a3.713,3.713,0,0,0-4.618-1.33,3.286,3.286,0,0,0-1.718,4.49c0.667,1.33,4.423,4.61,5.978,5.94h0a1.047,1.047,0,0,0,.674.25,1,1,0,0,0,.673-0.25h0c1.554-1.32,5.314-4.61,5.982-5.94A3.285,3.285,0,0,0,143.923,3277.33Z" transform="translate(-132 -3277.03)"/>
</svg>
