<svg xmlns="http://www.w3.org/2000/svg" width="11" height="12" viewBox="0 0 11 12">
  <metadata><?xpacket begin="﻿" id="W5M0MpCehiHzreSzNTczkc9d"?>
<x:xmpmeta xmlns:x="adobe:ns:meta/" x:xmptk="Adobe XMP Core 5.6-c138 79.159824, 2016/09/14-01:09:01        ">
   <rdf:RDF xmlns:rdf="http://www.w3.org/1999/02/22-rdf-syntax-ns#">
      <rdf:Description rdf:about=""/>
   </rdf:RDF>
</x:xmpmeta>
                                                                                                    
                                                                                                    
                                                                                                    
                                                                                                    
                                                                                                    
                                                                                                    
                                                                                                    
                                                                                                    
                                                                                                    
                                                                                                    
                                                                                                    
                                                                                                    
                                                                                                    
                                                                                                    
                                                                                                    
                                                                                                    
                                                                                                    
                                                                                                    
                                                                                                    
                                                                                                    
                           
<?xpacket end="w"?></metadata>
<defs>
    <style>
      .cls-1 {
        fill: #fff;
        fill-rule: evenodd;
      }
    </style>
  </defs>
  <path id="Share_Icon" data-name="Share Icon" class="cls-1" d="M226.941,3285a2.03,2.03,0,0,0-.818.17h-0.016a0.961,0.961,0,0,1-.415.09,1.126,1.126,0,0,1-.454-0.1c-0.04-.02-0.077-0.05-0.114-0.07l-2.613-1.52s-0.007,0-.011-0.01-0.019-.01-0.028-0.01a0.639,0.639,0,0,1,.011-1.1l2.655-1.54h0.007c0.024-.02.048-0.03,0.072-0.05h0a1.062,1.062,0,0,1,.473-0.11,1.1,1.1,0,0,1,.411.08,0.021,0.021,0,0,0,.02.01,1.988,1.988,0,1,0-1.238-1.99,0.971,0.971,0,0,1-.433.75q-0.045.03-.1,0.06l-2.446,1.42h0a1.068,1.068,0,0,1-.17.1,1,1,0,0,1-.424.09,0.933,0.933,0,0,1-.334-0.06,0.412,0.412,0,0,1-.143-0.06,2.165,2.165,0,0,0-.769-0.14,2,2,0,1,0,0,3.99,2.188,2.188,0,0,0,.815-0.16,0.026,0.026,0,0,1,.024-0.01,0.929,0.929,0,0,1,.407-0.09,1.024,1.024,0,0,1,.494.13,0.071,0.071,0,0,0,.038.02l2.511,1.46,0.094,0.06a0.94,0.94,0,0,1,.433.75A2.06,2.06,0,1,0,226.941,3285Z" transform="translate(-218 -3277)"/>
</svg>
