<svg xmlns="http://www.w3.org/2000/svg" width="18" height="18" viewBox="0 0 18 18">
  <metadata><?xpacket begin="﻿" id="W5M0MpCehiHzreSzNTczkc9d"?>
<x:xmpmeta xmlns:x="adobe:ns:meta/" x:xmptk="Adobe XMP Core 5.6-c138 79.159824, 2016/09/14-01:09:01        ">
   <rdf:RDF xmlns:rdf="http://www.w3.org/1999/02/22-rdf-syntax-ns#">
      <rdf:Description rdf:about=""/>
   </rdf:RDF>
</x:xmpmeta>
                                                                                                    
                                                                                                    
                                                                                                    
                                                                                                    
                                                                                                    
                                                                                                    
                                                                                                    
                                                                                                    
                                                                                                    
                                                                                                    
                                                                                                    
                                                                                                    
                                                                                                    
                                                                                                    
                                                                                                    
                                                                                                    
                                                                                                    
                                                                                                    
                                                                                                    
                                                                                                    
                           
<?xpacket end="w"?></metadata>
<defs>
    <style>
      .cls-1 {
        fill: #b4bbc2;
        fill-rule: evenodd;
      }
    </style>
  </defs>
  <path id="Search_Icon" data-name="Search Icon" class="cls-1" d="M634.558,702.217c-0.013-.013-0.026-0.024-0.038-0.035-1.96-1.7-3.317-2.941-4-3.569a1.244,1.244,0,0,1-.226-0.209,1.159,1.159,0,0,1-.266-0.743,1.212,1.212,0,0,1,.009-0.148,1.174,1.174,0,0,1,.073-0.284,1.211,1.211,0,0,1,.1-0.2A6.958,6.958,0,0,0,624,687.008a0.346,0.346,0,0,0-.045,0,6.962,6.962,0,0,0-.044,13.924h0.045a6.915,6.915,0,0,0,3.085-.72,0.745,0.745,0,0,1,.075-0.037,1.14,1.14,0,0,1,.436-0.105,0.452,0.452,0,0,1,.051,0,1.165,1.165,0,0,1,.739.263,1.145,1.145,0,0,1,.173.175c0.648,0.655,2,2.053,3.712,4a0.42,0.42,0,0,0,.041.044,1.6,1.6,0,0,0,2.267-.061A1.646,1.646,0,0,0,634.558,702.217Zm-6.941-4.568a5.166,5.166,0,0,1-3.659,1.506h-0.034a5.187,5.187,0,0,1,.033-10.373h0.035A5.184,5.184,0,0,1,627.617,697.649Z" transform="translate(-617 -687)"/>
</svg>
