<svg xmlns="http://www.w3.org/2000/svg" width="16.969" height="16.625" viewBox="0 0 16.969 16.625">
  <metadata><?xpacket begin="﻿" id="W5M0MpCehiHzreSzNTczkc9d"?>
<x:xmpmeta xmlns:x="adobe:ns:meta/" x:xmptk="Adobe XMP Core 5.6-c138 79.159824, 2016/09/14-01:09:01        ">
   <rdf:RDF xmlns:rdf="http://www.w3.org/1999/02/22-rdf-syntax-ns#">
      <rdf:Description rdf:about=""/>
   </rdf:RDF>
</x:xmpmeta>
                                                                                                    
                                                                                                    
                                                                                                    
                                                                                                    
                                                                                                    
                                                                                                    
                                                                                                    
                                                                                                    
                                                                                                    
                                                                                                    
                                                                                                    
                                                                                                    
                                                                                                    
                                                                                                    
                                                                                                    
                                                                                                    
                                                                                                    
                                                                                                    
                                                                                                    
                                                                                                    
                           
<?xpacket end="w"?></metadata>
<defs>
    <style>
      .cls-1 {
        fill: #fff;
        fill-rule: evenodd;
      }
    </style>
  </defs>
  <path id="Basket_Icon" data-name="Basket Icon" class="cls-1" d="M924.49,786.594c-0.292-.253-1.883-1.459-2.181-1.717a1.738,1.738,0,0,0-1.089-.329h-9.514a1.743,1.743,0,0,0-1.09.329c-0.3.258-1.889,1.464-2.181,1.717a1.261,1.261,0,0,0-.459,1.179c0.078,0.543,1.914,12.842,1.914,12.842a0.885,0.885,0,0,0,.784.563h11.579a0.881,0.881,0,0,0,.781-0.563s1.836-12.3,1.915-12.842A1.261,1.261,0,0,0,924.49,786.594Zm-3.829,4.311s-0.046.34-.107,0.786c0,0.016,0,.031,0,0.046-0.006.053-.013,0.106-0.022,0.158a4.117,4.117,0,0,1-8.13,0c-0.007-.052-0.015-0.105-0.021-0.158l-0.006-.046c-0.059-.446-0.106-0.786-0.106-0.786a0.533,0.533,0,0,1,0-.057,0.552,0.552,0,0,1,0-.057,0.629,0.629,0,0,1,.165-0.374,0.636,0.636,0,0,1,.44-0.208h0.258a0.633,0.633,0,0,1,.49.271,0.737,0.737,0,0,1,.117.336s0.055,0.343.121,0.736c0.011,0.078.025,0.158,0.039,0.238V791.8a2.632,2.632,0,0,0,2.568,2.076,2.634,2.634,0,0,0,2.569-2.076s0,0,0-.006c0.014-.08.026-0.16,0.039-0.238,0.064-.393.119-0.731,0.121-0.736a0.748,0.748,0,0,1,.115-0.336,0.633,0.633,0,0,1,.491-0.271h0.259a0.639,0.639,0,0,1,.6.582,0.559,0.559,0,0,1,0,.057A0.53,0.53,0,0,1,920.661,790.905Zm1.813-3.632H910.453a0.319,0.319,0,0,1-.308-0.319,0.315,0.315,0,0,1,.115-0.246,0.164,0.164,0,0,1,.026-0.02l1.109-.833h0c0.024-.02.048-0.039,0.073-0.056h0a0.943,0.943,0,0,1,.487-0.162l0.049,0,0.049,0h8.888a0.945,0.945,0,0,1,.511.163l0,0c0.024,0.016.046,0.033,0.067,0.05a0.005,0.005,0,0,0,0,0l1.1,0.823a0.239,0.239,0,0,1,.055.041,0.313,0.313,0,0,1,.1.235A0.319,0.319,0,0,1,922.474,787.273Z" transform="translate(-907.969 -784.563)"/>
</svg>
