<svg xmlns="http://www.w3.org/2000/svg" width="22" height="22" viewBox="0 0 22 22">
  <metadata><?xpacket begin="﻿" id="W5M0MpCehiHzreSzNTczkc9d"?>
<x:xmpmeta xmlns:x="adobe:ns:meta/" x:xmptk="Adobe XMP Core 5.6-c138 79.159824, 2016/09/14-01:09:01        ">
   <rdf:RDF xmlns:rdf="http://www.w3.org/1999/02/22-rdf-syntax-ns#">
      <rdf:Description rdf:about=""/>
   </rdf:RDF>
</x:xmpmeta>
                                                                                                    
                                                                                                    
                                                                                                    
                                                                                                    
                                                                                                    
                                                                                                    
                                                                                                    
                                                                                                    
                                                                                                    
                                                                                                    
                                                                                                    
                                                                                                    
                                                                                                    
                                                                                                    
                                                                                                    
                                                                                                    
                                                                                                    
                                                                                                    
                                                                                                    
                                                                                                    
                           
<?xpacket end="w"?></metadata>
<defs>
    <style>
      .cls-1 {
        fill: #fff;
        fill-rule: evenodd;
      }
    </style>
  </defs>
  <path id="Center_Icon" data-name="Center Icon" class="cls-1" d="M1040.99,2393.97a11,11,0,0,0-21.99.04h0a11,11,0,0,0,21.99.05v-0.09Zm-4.83,6.21a8.628,8.628,0,0,1-3.7,2.2l-0.09.03a1.526,1.526,0,0,1-.3.03,1.233,1.233,0,0,1-1.24-1.24v-1.18a0.83,0.83,0,0,0-.81-0.83h-0.05a0.83,0.83,0,0,0-.81.83v1.18a1.233,1.233,0,0,1-1.24,1.24,1.1,1.1,0,0,1-.31-0.04c-0.02,0-.04-0.01-0.06-0.01a8.767,8.767,0,0,1-5.93-5.93v-0.01a1.422,1.422,0,0,1-.05-0.36,1.24,1.24,0,0,1,1.24-1.24h1.18a0.839,0.839,0,0,0,.83-0.82v-0.04a0.83,0.83,0,0,0-.83-0.81h-1.18a1.246,1.246,0,0,1-1.24-1.24,1.055,1.055,0,0,1,.04-0.31h0a8.689,8.689,0,0,1,5.94-5.99h0a1.148,1.148,0,0,1,.37-0.06,1.24,1.24,0,0,1,1.24,1.24V2388a0.833,0.833,0,0,0,.81.84h0.05a0.833,0.833,0,0,0,.81-0.84v-1.18a1.24,1.24,0,0,1,1.24-1.24,1.148,1.148,0,0,1,.37.06h0a8.636,8.636,0,0,1,3.72,2.2,8.817,8.817,0,0,1,2.21,3.72,0.309,0.309,0,0,0,.02.08,1.526,1.526,0,0,1,.03.3,1.238,1.238,0,0,1-1.23,1.24H1036a0.83,0.83,0,0,0-.83.81v0.04a0.839,0.839,0,0,0,.83.82h1.18a1.233,1.233,0,0,1,1.24,1.24,1.422,1.422,0,0,1-.05.36h0A8.69,8.69,0,0,1,1036.16,2400.18Z" transform="translate(-1019 -2383)"/>
</svg>
