<svg xmlns="http://www.w3.org/2000/svg" width="23" height="23" viewBox="0 0 23 23">
  <metadata><?xpacket begin="﻿" id="W5M0MpCehiHzreSzNTczkc9d"?>
<x:xmpmeta xmlns:x="adobe:ns:meta/" x:xmptk="Adobe XMP Core 5.6-c138 79.159824, 2016/09/14-01:09:01        ">
   <rdf:RDF xmlns:rdf="http://www.w3.org/1999/02/22-rdf-syntax-ns#">
      <rdf:Description rdf:about=""/>
   </rdf:RDF>
</x:xmpmeta>
                                                                                                    
                                                                                                    
                                                                                                    
                                                                                                    
                                                                                                    
                                                                                                    
                                                                                                    
                                                                                                    
                                                                                                    
                                                                                                    
                                                                                                    
                                                                                                    
                                                                                                    
                                                                                                    
                                                                                                    
                                                                                                    
                                                                                                    
                                                                                                    
                                                                                                    
                                                                                                    
                           
<?xpacket end="w"?></metadata>
<defs>
    <style>
      .cls-1 {
        fill: #414141;
        fill-rule: evenodd;
      }
    </style>
  </defs>
  <path id="Edit_Icon" data-name="Edit Icon" class="cls-1" d="M1024.03,2263.01h-0.11a0.737,0.737,0,0,0-.49.22,0.745,0.745,0,0,0,0,1.06l2.35,2.35a1.038,1.038,0,0,1,.28.47,1.133,1.133,0,0,1-.13.93,0.642,0.642,0,0,1-.1.13,13.7,13.7,0,0,1-1.24,1.42l-0.01.01a15.287,15.287,0,0,1-1.5,1.31,1.126,1.126,0,0,1-1,.16,1.008,1.008,0,0,1-.46-0.28l-2.35-2.34a0.737,0.737,0,0,0-1.06,0,0.717,0.717,0,0,0-.22.49h0v0.11h0a5.847,5.847,0,0,0,1.71,3.94,1.661,1.661,0,0,0,.14.13,5.852,5.852,0,0,0,5.74,1.32,1.114,1.114,0,0,1,1.2.14h0l0.08,0.08a0.647,0.647,0,0,1,.08.09h0c1.57,1.57,7.05,7.12,10.02,10.54a2.3,2.3,0,0,0,3.34,0,2.362,2.362,0,0,0-.01-3.33c-3.57-3.15-9.06-8.53-10.57-10.02l-0.07-.07a0.265,0.265,0,0,1-.05-0.06,1.083,1.083,0,0,1-.25-0.97,0.754,0.754,0,0,1,.08-0.24h0a5.828,5.828,0,0,0-1.32-5.74c-0.04-.05-0.09-0.09-0.13-0.14A5.871,5.871,0,0,0,1024.03,2263.01Zm15.17,21.19a0.948,0.948,0,1,1,0-1.34A0.948,0.948,0,0,1,1039.2,2284.2Z" transform="translate(-1018 -2263)"/>
</svg>
