<svg xmlns="http://www.w3.org/2000/svg" width="24" height="24" viewBox="0 0 24 24">
  <metadata><?xpacket begin="﻿" id="W5M0MpCehiHzreSzNTczkc9d"?>
<x:xmpmeta xmlns:x="adobe:ns:meta/" x:xmptk="Adobe XMP Core 5.6-c138 79.159824, 2016/09/14-01:09:01        ">
   <rdf:RDF xmlns:rdf="http://www.w3.org/1999/02/22-rdf-syntax-ns#">
      <rdf:Description rdf:about=""/>
   </rdf:RDF>
</x:xmpmeta>
                                                                                                    
                                                                                                    
                                                                                                    
                                                                                                    
                                                                                                    
                                                                                                    
                                                                                                    
                                                                                                    
                                                                                                    
                                                                                                    
                                                                                                    
                                                                                                    
                                                                                                    
                                                                                                    
                                                                                                    
                                                                                                    
                                                                                                    
                                                                                                    
                                                                                                    
                                                                                                    
                           
<?xpacket end="w"?></metadata>
<defs>
    <style>
      .cls-1 {
        fill: #fff;
        fill-rule: evenodd;
      }
    </style>
  </defs>
  <path id="Frame_Icon" data-name="Frame Icon" class="cls-1" d="M1034.94,2446.09h-11.99a1.509,1.509,0,0,0-1.51,1.51v0.85a1.511,1.511,0,0,0,1.51,1.52h11.99a1.511,1.511,0,0,0,1.51-1.52v-0.85A1.509,1.509,0,0,0,1034.94,2446.09Zm0,5.65h-6.22a1.5,1.5,0,0,0-1.51,1.51v6.64a1.509,1.509,0,0,0,1.51,1.51h6.22a1.509,1.509,0,0,0,1.51-1.51v-6.64A1.5,1.5,0,0,0,1034.94,2451.74Zm-10.99-.08h-1a1.5,1.5,0,0,0-1.51,1.51v6.78a1.511,1.511,0,0,0,1.51,1.52h1a1.519,1.519,0,0,0,1.52-1.52v-6.78A1.511,1.511,0,0,0,1023.95,2451.66Zm15.54-9.65h-20.97a1.515,1.515,0,0,0-1.51,1.51v20.98a1.515,1.515,0,0,0,1.51,1.51h20.97a1.515,1.515,0,0,0,1.51-1.51v-20.98A1.515,1.515,0,0,0,1039.49,2442.01Zm-0.55,21.25v0.03a0.682,0.682,0,0,1-.64.65,0.075,0.075,0,0,1-.05.01,0.09,0.09,0,0,1-.05-0.01h-18.39a0.13,0.13,0,0,1-.1,0,0.682,0.682,0,0,1-.64-0.65v-18.57a0.691,0.691,0,0,1,.69-0.65h18.49a0.691,0.691,0,0,1,.69.65v18.54Z" transform="translate(-1017 -2442)"/>
</svg>
