<svg xmlns="http://www.w3.org/2000/svg" width="24" height="16" viewBox="0 0 24 16">
  <metadata><?xpacket begin="﻿" id="W5M0MpCehiHzreSzNTczkc9d"?>
<x:xmpmeta xmlns:x="adobe:ns:meta/" x:xmptk="Adobe XMP Core 5.6-c138 79.159824, 2016/09/14-01:09:01        ">
   <rdf:RDF xmlns:rdf="http://www.w3.org/1999/02/22-rdf-syntax-ns#">
      <rdf:Description rdf:about=""/>
   </rdf:RDF>
</x:xmpmeta>
                                                                                                    
                                                                                                    
                                                                                                    
                                                                                                    
                                                                                                    
                                                                                                    
                                                                                                    
                                                                                                    
                                                                                                    
                                                                                                    
                                                                                                    
                                                                                                    
                                                                                                    
                                                                                                    
                                                                                                    
                                                                                                    
                                                                                                    
                                                                                                    
                                                                                                    
                                                                                                    
                           
<?xpacket end="w"?></metadata>
<defs>
    <style>
      .cls-1 {
        fill: #fff;
        fill-rule: evenodd;
      }
    </style>
  </defs>
  <path id="Gamepad_Icon" data-name="Gamepad Icon" class="cls-1" d="M961.268,2394.62c-1.133-4.45-2.336-6.81-4.737-7.48s-3.159,1.05-6.522,1.05-4.121-1.72-6.522-1.05-3.605,3.03-4.737,7.48-0.928,7.65.411,8.25,2.849-1.06,4.291-2.75,1.751-2.54,6.557-2.54,5.114,0.85,6.556,2.54,2.952,3.35,4.291,2.75S962.4,2399.06,961.268,2394.62Zm-14.253-.59h-0.689a0.206,0.206,0,0,0-.2.18,0.226,0.226,0,0,0,0,.06l0,0.62v0.01a0.579,0.579,0,0,1-.574.58,0.572,0.572,0,0,1-.57-0.54v-0.09l0-.61h0a0.2,0.2,0,0,0-.191-0.21h-0.653a0.592,0.592,0,0,1-.044-1.18h0.7a0.208,0.208,0,0,0,.189-0.19v-0.03h0v-0.68a0.576,0.576,0,0,1,1.15-.01v0.69a0.018,0.018,0,0,0,0,.01v0.01a0.211,0.211,0,0,0,.193.2H947a0.588,0.588,0,0,1,.538.59A0.581,0.581,0,0,1,947.015,2394.03Zm7.3,1.06a1.656,1.656,0,1,1,1.613-1.66A1.634,1.634,0,0,1,954.317,2395.09Z" transform="translate(-938 -2387)"/>
</svg>
