<svg xmlns="http://www.w3.org/2000/svg" width="20" height="20" viewBox="0 0 20 20">
  <metadata><?xpacket begin="﻿" id="W5M0MpCehiHzreSzNTczkc9d"?>
<x:xmpmeta xmlns:x="adobe:ns:meta/" x:xmptk="Adobe XMP Core 5.6-c138 79.159824, 2016/09/14-01:09:01        ">
   <rdf:RDF xmlns:rdf="http://www.w3.org/1999/02/22-rdf-syntax-ns#">
      <rdf:Description rdf:about=""/>
   </rdf:RDF>
</x:xmpmeta>
                                                                                                    
                                                                                                    
                                                                                                    
                                                                                                    
                                                                                                    
                                                                                                    
                                                                                                    
                                                                                                    
                                                                                                    
                                                                                                    
                                                                                                    
                                                                                                    
                                                                                                    
                                                                                                    
                                                                                                    
                                                                                                    
                                                                                                    
                                                                                                    
                                                                                                    
                                                                                                    
                           
<?xpacket end="w"?></metadata>
<defs>
    <style>
      .cls-1 {
        fill: #fff;
        fill-rule: evenodd;
      }
    </style>
  </defs>
  <path id="Home_Icon" data-name="Home Icon" class="cls-1" d="M959.579,2210.97h0l-8.673-6.7a1.653,1.653,0,0,0-1.811,0s-8.422,6.51-8.581,6.63h0a1.409,1.409,0,0,0-.5,1.08v10.59a1.424,1.424,0,0,0,1.424,1.42h4.046a1.426,1.426,0,0,0,1.426-1.42v-4.91a1.418,1.418,0,0,1,1.424-1.42h3.344a1.419,1.419,0,0,1,1.425,1.42v4.91a1.425,1.425,0,0,0,1.425,1.42h4.047a1.424,1.424,0,0,0,1.424-1.42v-10.7A1.382,1.382,0,0,0,959.579,2210.97Z" transform="translate(-940 -2204)"/>
</svg>
