<svg xmlns="http://www.w3.org/2000/svg" width="10" height="24" viewBox="0 0 10 24">
  <metadata><?xpacket begin="﻿" id="W5M0MpCehiHzreSzNTczkc9d"?>
<x:xmpmeta xmlns:x="adobe:ns:meta/" x:xmptk="Adobe XMP Core 5.6-c138 79.159824, 2016/09/14-01:09:01        ">
   <rdf:RDF xmlns:rdf="http://www.w3.org/1999/02/22-rdf-syntax-ns#">
      <rdf:Description rdf:about=""/>
   </rdf:RDF>
</x:xmpmeta>
                                                                                                    
                                                                                                    
                                                                                                    
                                                                                                    
                                                                                                    
                                                                                                    
                                                                                                    
                                                                                                    
                                                                                                    
                                                                                                    
                                                                                                    
                                                                                                    
                                                                                                    
                                                                                                    
                                                                                                    
                                                                                                    
                                                                                                    
                                                                                                    
                                                                                                    
                                                                                                    
                           
<?xpacket end="w"?></metadata>
<defs>
    <style>
      .cls-1 {
        fill: #383737;
        fill-rule: evenodd;
      }
    </style>
  </defs>
  <path id="Info_Icon" data-name="Info Icon" class="cls-1" d="M1030.96,2506.36a3.069,3.069,0,0,0,3.05-3.02,2.191,2.191,0,0,0-2.29-2.35,3.021,3.021,0,0,0-3.02,2.98A2.107,2.107,0,0,0,1030.96,2506.36Zm2.22,13.83a0.66,0.66,0,0,0-.27.06c-0.05.04-.1,0.07-0.16,0.11h0a4.9,4.9,0,0,1-1.95.88c-0.28,0-.41-0.39-0.12-1.53l1.58-6.42c0.61-2.35.4-3.88-.8-3.88-1.36,0-4.41,1.35-7.2,3.68-0.01.01-.02,0.01-0.03,0.02a0.7,0.7,0,0,0-.23.52,0.66,0.66,0,0,0,.64.68,0.78,0.78,0,0,0,.22-0.04c0.06-.03.11-0.07,0.17-0.1a7.675,7.675,0,0,1,2.12-.88c0.28,0,.24.39,0,1.37l-1.38,6.11c-0.85,3.45.04,4.23,1.25,4.23,1.12,0,3.88-1.01,6.56-3.6a0.6,0.6,0,0,1,.08-0.08,0.714,0.714,0,0,0,.17-0.45A0.662,0.662,0,0,0,1033.18,2520.19Z" transform="translate(-1024 -2501)"/>
</svg>
