<svg xmlns="http://www.w3.org/2000/svg" width="18" height="12" viewBox="0 0 18 12">
  <metadata><?xpacket begin="﻿" id="W5M0MpCehiHzreSzNTczkc9d"?>
<x:xmpmeta xmlns:x="adobe:ns:meta/" x:xmptk="Adobe XMP Core 5.6-c138 79.159824, 2016/09/14-01:09:01        ">
   <rdf:RDF xmlns:rdf="http://www.w3.org/1999/02/22-rdf-syntax-ns#">
      <rdf:Description rdf:about=""/>
   </rdf:RDF>
</x:xmpmeta>
                                                                                                    
                                                                                                    
                                                                                                    
                                                                                                    
                                                                                                    
                                                                                                    
                                                                                                    
                                                                                                    
                                                                                                    
                                                                                                    
                                                                                                    
                                                                                                    
                                                                                                    
                                                                                                    
                                                                                                    
                                                                                                    
                                                                                                    
                                                                                                    
                                                                                                    
                                                                                                    
                           
<?xpacket end="w"?></metadata>
<defs>
    <style>
      .cls-1 {
        fill: #fff;
        fill-rule: evenodd;
      }
    </style>
  </defs>
  <path id="Message_Icon" data-name="Message Icon" class="cls-1" d="M136.489,1400.9a0.481,0.481,0,0,0-.265.08s-7.523,6.06-7.587,6.1a1.1,1.1,0,0,1-1.293,0c-0.061-.04-7.582-6.1-7.582-6.1a0.481,0.481,0,0,0-.265-0.08,0.512,0.512,0,0,0-.506.52v8.4a1.159,1.159,0,0,0,1.14,1.17h15.725a1.159,1.159,0,0,0,1.139-1.17v-8.4A0.512,0.512,0,0,0,136.489,1400.9Zm-9.019,4.77a0.885,0.885,0,0,0,.53.17,0.835,0.835,0,0,0,.532-0.18l7.269-5.71,0.117-.1a0.52,0.52,0,0,0-.38-0.86H120.461a0.512,0.512,0,0,0-.506.52,0.52,0.52,0,0,0,.153.37Z" transform="translate(-119 -1399)"/>
</svg>
