<svg xmlns="http://www.w3.org/2000/svg" width="17" height="20" viewBox="0 0 17 20">
  <metadata><?xpacket begin="﻿" id="W5M0MpCehiHzreSzNTczkc9d"?>
<x:xmpmeta xmlns:x="adobe:ns:meta/" x:xmptk="Adobe XMP Core 5.6-c138 79.159824, 2016/09/14-01:09:01        ">
   <rdf:RDF xmlns:rdf="http://www.w3.org/1999/02/22-rdf-syntax-ns#">
      <rdf:Description rdf:about=""/>
   </rdf:RDF>
</x:xmpmeta>
                                                                                                    
                                                                                                    
                                                                                                    
                                                                                                    
                                                                                                    
                                                                                                    
                                                                                                    
                                                                                                    
                                                                                                    
                                                                                                    
                                                                                                    
                                                                                                    
                                                                                                    
                                                                                                    
                                                                                                    
                                                                                                    
                                                                                                    
                                                                                                    
                                                                                                    
                                                                                                    
                           
<?xpacket end="w"?></metadata>
<defs>
    <style>
      .cls-1 {
        fill: #fff;
        fill-rule: evenodd;
      }
    </style>
  </defs>
  <path id="Music_Icon" data-name="Music Icon" class="cls-1" d="M957.012,2324h-0.091l-0.139.03-9.7,1.57-0.327.05a1.477,1.477,0,0,0-1.086,1.42h0v0.01l0,11.01h0a0.653,0.653,0,0,1-.492.63,0.772,0.772,0,0,1-.152.03l-2.043.28a2.373,2.373,0,0,0-1.991,2.27v1a1.69,1.69,0,0,0,1.991,1.7l2.324-.33a2.372,2.372,0,0,0,1.99-2.27v-0.05h0v-9.17c0-.02,0-0.05,0-0.07s0-.06,0-0.08a1.479,1.479,0,0,1,1.131-1.36,0.964,0.964,0,0,1,.241-0.04l6.509-1.02c0.03,0,.061-0.01.093-0.01a0.425,0.425,0,0,1,.113-0.01,0.988,0.988,0,0,1,.99.99v5.33a0.657,0.657,0,0,1-.5.64h0a0.666,0.666,0,0,1-.143.02l-2.047.29a2.372,2.372,0,0,0-1.991,2.27v0.99a1.691,1.691,0,0,0,1.991,1.71l2.323-.33a2.374,2.374,0,0,0,1.992-2.27v-14.24A0.989,0.989,0,0,0,957.012,2324Z" transform="translate(-941 -2324)"/>
</svg>
