<svg xmlns="http://www.w3.org/2000/svg" width="18" height="18" viewBox="0 0 18 18">
  <metadata><?xpacket begin="﻿" id="W5M0MpCehiHzreSzNTczkc9d"?>
<x:xmpmeta xmlns:x="adobe:ns:meta/" x:xmptk="Adobe XMP Core 5.6-c138 79.159824, 2016/09/14-01:09:01        ">
   <rdf:RDF xmlns:rdf="http://www.w3.org/1999/02/22-rdf-syntax-ns#">
      <rdf:Description rdf:about=""/>
   </rdf:RDF>
</x:xmpmeta>
                                                                                                    
                                                                                                    
                                                                                                    
                                                                                                    
                                                                                                    
                                                                                                    
                                                                                                    
                                                                                                    
                                                                                                    
                                                                                                    
                                                                                                    
                                                                                                    
                                                                                                    
                                                                                                    
                                                                                                    
                                                                                                    
                                                                                                    
                                                                                                    
                                                                                                    
                                                                                                    
                           
<?xpacket end="w"?></metadata>
<defs>
    <style>
      .cls-1 {
        fill: #fff;
        fill-rule: evenodd;
      }
    </style>
  </defs>
  <path id="Search_Icon" data-name="Search Icon" class="cls-1" d="M821.558,523.217l-0.038-.035c-1.96-1.7-3.317-2.941-4-3.569a1.179,1.179,0,0,1-.226-0.209,1.159,1.159,0,0,1-.266-0.743,1.212,1.212,0,0,1,.009-0.148,1.174,1.174,0,0,1,.073-0.284,1.211,1.211,0,0,1,.1-0.2A6.958,6.958,0,0,0,811,508.008a0.346,0.346,0,0,0-.045,0,6.963,6.963,0,0,0-.044,13.925h0.045a6.928,6.928,0,0,0,3.085-.719c0.025-.014.049-0.027,0.075-0.039a1.177,1.177,0,0,1,.436-0.1h0.051a1.164,1.164,0,0,1,.739.262,1.192,1.192,0,0,1,.173.175c0.648,0.655,2,2.053,3.711,4a0.577,0.577,0,0,0,.042.044,1.6,1.6,0,0,0,2.267-.061A1.646,1.646,0,0,0,821.558,523.217Zm-6.941-4.568a5.166,5.166,0,0,1-3.659,1.506h-0.034a5.186,5.186,0,0,1,.033-10.372h0.035A5.183,5.183,0,0,1,814.617,518.649Z" transform="translate(-804 -508)"/>
</svg>
