<svg xmlns="http://www.w3.org/2000/svg" width="14" height="14" viewBox="0 0 14 14">
  <metadata><?xpacket begin="﻿" id="W5M0MpCehiHzreSzNTczkc9d"?>
<x:xmpmeta xmlns:x="adobe:ns:meta/" x:xmptk="Adobe XMP Core 5.6-c138 79.159824, 2016/09/14-01:09:01        ">
   <rdf:RDF xmlns:rdf="http://www.w3.org/1999/02/22-rdf-syntax-ns#">
      <rdf:Description rdf:about=""/>
   </rdf:RDF>
</x:xmpmeta>
                                                                                                    
                                                                                                    
                                                                                                    
                                                                                                    
                                                                                                    
                                                                                                    
                                                                                                    
                                                                                                    
                                                                                                    
                                                                                                    
                                                                                                    
                                                                                                    
                                                                                                    
                                                                                                    
                                                                                                    
                                                                                                    
                                                                                                    
                                                                                                    
                                                                                                    
                                                                                                    
                           
<?xpacket end="w"?></metadata>
<defs>
    <style>
      .cls-1 {
        fill: #b4bbc2;
        fill-rule: evenodd;
      }
    </style>
  </defs>
  <path id="Search_Icon" data-name="Search Icon" class="cls-1" d="M925.656,281.835l-0.03-.027c-1.524-1.324-2.58-2.287-3.107-2.776a0.911,0.911,0,0,1-.383-0.74,0.877,0.877,0,0,1,.008-0.115,0.909,0.909,0,0,1,.057-0.221,0.838,0.838,0,0,1,.078-0.152,5.412,5.412,0,0,0-4.833-7.8h-0.035a5.415,5.415,0,0,0-.034,10.83h0.035a5.393,5.393,0,0,0,2.4-.559,0.543,0.543,0,0,1,.059-0.03,0.871,0.871,0,0,1,.339-0.081h0.039a0.907,0.907,0,0,1,.709.339c0.5,0.51,1.554,1.6,2.887,3.113,0.01,0.012.021,0.024,0.032,0.035a1.244,1.244,0,0,0,1.764-.048A1.28,1.28,0,0,0,925.656,281.835Zm-5.4-3.552a4.023,4.023,0,0,1-2.846,1.171h-0.027a4.034,4.034,0,0,1,.026-8.068h0.027A4.033,4.033,0,0,1,920.258,278.283Z" transform="translate(-912 -270)"/>
</svg>
