<svg xmlns="http://www.w3.org/2000/svg" width="20" height="20" viewBox="0 0 20 20">
  <metadata><?xpacket begin="﻿" id="W5M0MpCehiHzreSzNTczkc9d"?>
<x:xmpmeta xmlns:x="adobe:ns:meta/" x:xmptk="Adobe XMP Core 5.6-c138 79.159824, 2016/09/14-01:09:01        ">
   <rdf:RDF xmlns:rdf="http://www.w3.org/1999/02/22-rdf-syntax-ns#">
      <rdf:Description rdf:about=""/>
   </rdf:RDF>
</x:xmpmeta>
                                                                                                    
                                                                                                    
                                                                                                    
                                                                                                    
                                                                                                    
                                                                                                    
                                                                                                    
                                                                                                    
                                                                                                    
                                                                                                    
                                                                                                    
                                                                                                    
                                                                                                    
                                                                                                    
                                                                                                    
                                                                                                    
                                                                                                    
                                                                                                    
                                                                                                    
                                                                                                    
                           
<?xpacket end="w"?></metadata>
<defs>
    <style>
      .cls-1 {
        fill: #fff;
        fill-rule: evenodd;
      }
    </style>
  </defs>
  <path id="Settings_Icon" data-name="Settings Icon" class="cls-1" d="M960.966,2453.07h-0.011a0.832,0.832,0,0,0-.743-0.74h-0.458v-0.01a1.239,1.239,0,0,1-1.227-1.01,7.164,7.164,0,0,0-.314-0.75v-0.01a1.117,1.117,0,0,1-.142-0.28h0a1.236,1.236,0,0,1-.071-0.41,1.255,1.255,0,0,1,.366-0.89h0l0.255-.25s0.006,0,.01-0.01,0.006-.01.008-0.01a0.825,0.825,0,0,0,.048-1.1l0.005-.01c-0.2-.23-0.4-0.45-0.614-0.67s-0.448-.42-0.687-0.62h0a0.835,0.835,0,0,0-1.016-.03l-0.183.19-0.171.17-0.007-.01a1.261,1.261,0,0,1-1.349.28q-0.093-.045-0.177-0.09a9.036,9.036,0,0,0-.889-0.37,0.925,0.925,0,0,1-.16-0.05h0a1.136,1.136,0,0,1-.412-0.28,1.235,1.235,0,0,1-.356-0.72,1.149,1.149,0,0,1,0-.31v-0.22a0.834,0.834,0,0,0-.686-0.82c-0.049,0-.1-0.01-0.146-0.01h0c-0.275-.02-0.553-0.04-0.833-0.04s-0.558.02-.833,0.04h0c-0.049,0-.1.01-0.146,0.01a0.833,0.833,0,0,0-.686.82v0.37a1.237,1.237,0,0,1-.813,1.17l-0.092.03a10.022,10.022,0,0,0-.968.4,0.038,0.038,0,0,1,0,.01l-0.075.03a1.145,1.145,0,0,1-.52.12,1.23,1.23,0,0,1-.883-0.37h0l-0.264-.26a0.839,0.839,0,0,0-1.063-.1l-0.11.09c0,0.01,0,.01,0,0.01-0.212.18-.417,0.37-0.613,0.56s-0.385.4-.564,0.61a0.016,0.016,0,0,0,0,.01,0.966,0.966,0,0,0-.1.11,0.827,0.827,0,0,0,.1,1.06l0.263,0.27a1.232,1.232,0,0,1,.254,1.39c-0.013.03-.027,0.06-0.043,0.09a7.92,7.92,0,0,0-.4.96c-0.01.04-.022,0.07-0.036,0.11h0a1.331,1.331,0,0,1-.283.43,1.263,1.263,0,0,1-.883.37h-0.372a0.829,0.829,0,0,0-.821.68c0,0.05-.009.1-0.013,0.15h0c-0.022.27-.034,0.56-0.034,0.83h0v0.02h0c0,0.27.012,0.55,0.034,0.82h0c0,0.05.008,0.09,0.013,0.14a0.836,0.836,0,0,0,.819.69h0.374a1.246,1.246,0,0,1,1.166.8h0a0.8,0.8,0,0,1,.031.09c0,0.01,0,.01,0,0.01a8.069,8.069,0,0,0,.4.97h0c0.013,0.03.025,0.05,0.037,0.08a1.229,1.229,0,0,1,.113.52,1.249,1.249,0,0,1-.366.88h0l-0.254.26h-0.01c0,0.01-.007.01-0.01,0.01a0.843,0.843,0,0,0-.093,1.05c0.037,0.04.073,0.09,0.109,0.13q0.267,0.315.56,0.6h0a7.072,7.072,0,0,0,.608.56,1.363,1.363,0,0,0,.127.11,0.82,0.82,0,0,0,.956-0.02l0.183-.18,0.171-.17,0.008,0.01a1.25,1.25,0,0,1,1.4-.26c0.024,0.01.048,0.03,0.07,0.04h0.006a8.153,8.153,0,0,0,.975.41,0.263,0.263,0,0,1,.086.02,1.286,1.286,0,0,1,.45.29,1.247,1.247,0,0,1,.366.88h0v0.37a0.84,0.84,0,0,0,.747.83h0c0.3,0.03.609,0.04,0.919,0.04s0.615-.01.918-0.04h0a0.842,0.842,0,0,0,.748-0.83v-0.37a1.238,1.238,0,0,1,.72-1.13,1.313,1.313,0,0,1,.273-0.1,5.8,5.8,0,0,0,.8-0.33,1.085,1.085,0,0,1,.241-0.12,1.26,1.26,0,0,1,.437-0.08,1.231,1.231,0,0,1,.828.32c0.038,0.03.073,0.07,0.107,0.1l0.213,0.22h0a0.833,0.833,0,0,0,1.078.08h0a0.5,0.5,0,0,0,.08-0.07,7.434,7.434,0,0,0,.63-0.58q0.3-.3.58-0.63a0.574,0.574,0,0,0,.071-0.08,0.838,0.838,0,0,0-.057-1.05h0l-0.059-.06h0l-0.232-.23h0a1.251,1.251,0,0,1-.265-1.38c0.019-.04.039-0.08,0.063-0.12a7.916,7.916,0,0,0,.387-0.93,1.091,1.091,0,0,1,.042-0.13,1.337,1.337,0,0,1,.28-0.43,1.251,1.251,0,0,1,.883-0.36h0.359v-0.01a0.832,0.832,0,0,0,.831-0.79l0.013,0.01c0.024-.29.037-0.58,0.037-0.88S960.994,2453.38,960.966,2453.07Zm-4.851.92h0a5.087,5.087,0,0,1-.276,1.67,5.236,5.236,0,0,1-.239.58,5.183,5.183,0,0,1-.979,1.37,5.362,5.362,0,0,1-1.372.99,5.863,5.863,0,0,1-.584.24,5.1,5.1,0,0,1-1.666.28h-0.015a5.019,5.019,0,0,1-1.651-.27,4.313,4.313,0,0,1-.6-0.25,5.266,5.266,0,0,1-1.367-.97,5.159,5.159,0,0,1-.985-1.37c-0.094-.2-0.178-0.4-0.249-0.6a5.137,5.137,0,0,1-.276-1.65,5.3,5.3,0,0,1,.276-1.68,4.871,4.871,0,0,1,.249-0.6,5.182,5.182,0,0,1,.985-1.37,5.118,5.118,0,0,1,1.376-.98,5.865,5.865,0,0,1,.595-0.24,5.019,5.019,0,0,1,1.651-.27H951a5.1,5.1,0,0,1,1.666.28,5.749,5.749,0,0,1,.583.24,5.1,5.1,0,0,1,1.372.99,4.985,4.985,0,0,1,.975,1.36,5.231,5.231,0,0,1,.244.59,5.1,5.1,0,0,1,.276,1.66h0Z" transform="translate(-941 -2444)"/>
</svg>
