<svg xmlns="http://www.w3.org/2000/svg" width="18" height="18" viewBox="0 0 18 18">
  <metadata><?xpacket begin="﻿" id="W5M0MpCehiHzreSzNTczkc9d"?>
<x:xmpmeta xmlns:x="adobe:ns:meta/" x:xmptk="Adobe XMP Core 5.6-c138 79.159824, 2016/09/14-01:09:01        ">
   <rdf:RDF xmlns:rdf="http://www.w3.org/1999/02/22-rdf-syntax-ns#">
      <rdf:Description rdf:about=""/>
   </rdf:RDF>
</x:xmpmeta>
                                                                                                    
                                                                                                    
                                                                                                    
                                                                                                    
                                                                                                    
                                                                                                    
                                                                                                    
                                                                                                    
                                                                                                    
                                                                                                    
                                                                                                    
                                                                                                    
                                                                                                    
                                                                                                    
                                                                                                    
                                                                                                    
                                                                                                    
                                                                                                    
                                                                                                    
                                                                                                    
                           
<?xpacket end="w"?></metadata>
<defs>
    <style>
      .cls-1 {
        fill: #fff;
        fill-rule: evenodd;
      }
    </style>
  </defs>
  <path id="Settings_Icon" data-name="Settings Icon" class="cls-1" d="M871.969,791.164h-0.01a0.748,0.748,0,0,0-.669-0.668h-0.411v0a1.125,1.125,0,0,1-1.009-.625,1.138,1.138,0,0,1-.1-0.292,7.255,7.255,0,0,0-.282-0.674v0a1.146,1.146,0,0,1-.127-0.252v0a1.125,1.125,0,0,1,.265-1.169h0l0.229-.228,0.009-.008,0.007-.009a0.747,0.747,0,0,0,.043-0.993l0,0c-0.176-.21-0.36-0.412-0.552-0.6s-0.4-.385-0.619-0.564l0,0a0.751,0.751,0,0,0-.915-0.024l-0.164.165-0.154.153-0.007-.007a1.124,1.124,0,0,1-1.214.248,0.99,0.99,0,0,1-.16-0.079,7.105,7.105,0,0,0-.8-0.329,1.04,1.04,0,0,1-.143-0.047l0,0a1.106,1.106,0,0,1-.37-0.245,1.131,1.131,0,0,1-.321-0.654,1.1,1.1,0,0,1,0-.281v-0.193a0.75,0.75,0,0,0-.617-0.737l-0.132-.012h0c-0.248-.02-0.5-0.031-0.75-0.031s-0.5.011-.75,0.031h0l-0.132.012a0.749,0.749,0,0,0-.617.737v0.334a1.122,1.122,0,0,1-.732,1.053,0.575,0.575,0,0,1-.083.027,7.25,7.25,0,0,0-.871.361,0,0,0,0,1,0,0l-0.068.034a1.123,1.123,0,0,1-1.262-.227h0l-0.237-.236a0.749,0.749,0,0,0-.957-0.087l-0.1.082,0,0c-0.192.161-.376,0.331-0.552,0.507s-0.347.36-.508,0.55v0c-0.029.033-.058,0.068-0.086,0.1a0.748,0.748,0,0,0,.086.957l0.236,0.236a1.126,1.126,0,0,1,.229,1.259c-0.012.026-.025,0.052-0.039,0.076a6.934,6.934,0,0,0-.359.867c-0.009.032-.02,0.062-0.032,0.093h0a1.13,1.13,0,0,1-1.05.72v0h-0.335a0.749,0.749,0,0,0-.738.616c0,0.043-.009.087-0.013,0.132h0c-0.019.242-.03,0.5-0.03,0.749h0v0.013h0c0,0.248.011,0.493,0.03,0.736h0c0,0.044.008,0.087,0.013,0.131a0.748,0.748,0,0,0,.736.617h0.337a1.127,1.127,0,0,1,1.05.721v0c0.01,0.028.02,0.056,0.027,0.084a0.011,0.011,0,0,1,0,.006,7.27,7.27,0,0,0,.36.87,0.01,0.01,0,0,1,0,0c0.012,0.021.023,0.044,0.034,0.067a1.123,1.123,0,0,1-.228,1.263h0l-0.229.229-0.009.008-0.008.009a0.748,0.748,0,0,0-.084.939c0.033,0.039.065,0.079,0.1,0.117,0.16,0.189.328,0.37,0.5,0.546h0c0.175,0.175.358,0.344,0.547,0.5l0.114,0.1a0.752,0.752,0,0,0,.861-0.017l0.164-.164,0.155-.154,0.006,0.006a1.128,1.128,0,0,1,1.263-.227c0.021,0.009.042,0.02,0.062,0.03l0,0a6.962,6.962,0,0,0,.878.364l0.077,0.026a1.143,1.143,0,0,1,.405.259,1.118,1.118,0,0,1,.33.794h0v0.328a0.749,0.749,0,0,0,.672.745v0c0.273,0.025.548,0.038,0.827,0.038s0.554-.013.827-0.038v0a0.75,0.75,0,0,0,.673-0.745v-0.334a1.123,1.123,0,0,1,.649-1.018,1.138,1.138,0,0,1,.245-0.082,6.9,6.9,0,0,0,.72-0.3,1.046,1.046,0,0,1,.217-0.108,1.122,1.122,0,0,1,1.138.212,0.8,0.8,0,0,1,.1.1l0.192,0.192h0a0.753,0.753,0,0,0,.97.077,0,0,0,0,0,0,0l0.072-.059q0.3-.249.568-0.521t0.521-.567l0.064-.078a0.745,0.745,0,0,0-.051-0.939h0l-0.053-.053h0l-0.209-.21h0a1.12,1.12,0,0,1-.238-1.238,0.919,0.919,0,0,1,.057-0.113,7.167,7.167,0,0,0,.347-0.838,1.071,1.071,0,0,1,.038-0.113,1.136,1.136,0,0,1,.252-0.385,1.123,1.123,0,0,1,.795-0.328v0h0.323v0a0.75,0.75,0,0,0,.748-0.71h0.012q0.033-.389.033-0.785C872.007,791.714,871.994,791.438,871.969,791.164Zm-4.365.83h0a4.579,4.579,0,0,1-.249,1.5,4.49,4.49,0,0,1-.215.521,4.618,4.618,0,0,1-2.116,2.123,4.485,4.485,0,0,1-.526.219,4.587,4.587,0,0,1-1.5.253h-0.014a4.614,4.614,0,0,1-1.485-.243,4.566,4.566,0,0,1-.544-0.224,4.6,4.6,0,0,1-2.589-4.136,4.735,4.735,0,0,1,.248-1.508,4.611,4.611,0,0,1,4.37-3.116H863a4.587,4.587,0,0,1,1.5.253,4.4,4.4,0,0,1,.525.219,4.631,4.631,0,0,1,1.235.885,4.576,4.576,0,0,1,1.1,1.759,4.58,4.58,0,0,1,.249,1.493v0Z" transform="translate(-854 -783)"/>
</svg>
