<svg xmlns="http://www.w3.org/2000/svg" width="14" height="11" viewBox="0 0 14 11">
  <metadata><?xpacket begin="﻿" id="W5M0MpCehiHzreSzNTczkc9d"?>
<x:xmpmeta xmlns:x="adobe:ns:meta/" x:xmptk="Adobe XMP Core 5.6-c138 79.159824, 2016/09/14-01:09:01        ">
   <rdf:RDF xmlns:rdf="http://www.w3.org/1999/02/22-rdf-syntax-ns#">
      <rdf:Description rdf:about=""/>
   </rdf:RDF>
</x:xmpmeta>
                                                                                                    
                                                                                                    
                                                                                                    
                                                                                                    
                                                                                                    
                                                                                                    
                                                                                                    
                                                                                                    
                                                                                                    
                                                                                                    
                                                                                                    
                                                                                                    
                                                                                                    
                                                                                                    
                                                                                                    
                                                                                                    
                                                                                                    
                                                                                                    
                                                                                                    
                                                                                                    
                           
<?xpacket end="w"?></metadata>
<defs>
    <style>
      .cls-1 {
        fill: #fff;
        fill-rule: evenodd;
        opacity: 0.5;
      }
    </style>
  </defs>
  <path id="Twitter_Logo" data-name="Twitter Logo" class="cls-1" d="M861,1760.3a5.683,5.683,0,0,1-1.65.43,2.771,2.771,0,0,0,1.263-1.53,5.714,5.714,0,0,1-1.824.67,2.908,2.908,0,0,0-2.1-.87,2.822,2.822,0,0,0-2.872,2.77,2.733,2.733,0,0,0,.075.64,8.275,8.275,0,0,1-5.921-2.91,2.706,2.706,0,0,0-.388,1.4,2.758,2.758,0,0,0,1.277,2.31,2.85,2.85,0,0,1-1.3-.35c0,0.02,0,.03,0,0.04a2.793,2.793,0,0,0,2.3,2.72,2.7,2.7,0,0,1-.756.1,3.191,3.191,0,0,1-.541-0.05,2.866,2.866,0,0,0,2.683,1.93,5.856,5.856,0,0,1-3.567,1.19,5.165,5.165,0,0,1-.685-0.04,8.317,8.317,0,0,0,4.4,1.25,7.977,7.977,0,0,0,8.172-7.91c0-.12,0-0.24-0.008-0.35A6.01,6.01,0,0,0,861,1760.3Z" transform="translate(-847 -1759)"/>
</svg>
