<svg xmlns="http://www.w3.org/2000/svg" width="20" height="20" viewBox="0 0 20 20">
  <metadata><?xpacket begin="﻿" id="W5M0MpCehiHzreSzNTczkc9d"?>
<x:xmpmeta xmlns:x="adobe:ns:meta/" x:xmptk="Adobe XMP Core 5.6-c138 79.159824, 2016/09/14-01:09:01        ">
   <rdf:RDF xmlns:rdf="http://www.w3.org/1999/02/22-rdf-syntax-ns#">
      <rdf:Description rdf:about=""/>
   </rdf:RDF>
</x:xmpmeta>
                                                                                                    
                                                                                                    
                                                                                                    
                                                                                                    
                                                                                                    
                                                                                                    
                                                                                                    
                                                                                                    
                                                                                                    
                                                                                                    
                                                                                                    
                                                                                                    
                                                                                                    
                                                                                                    
                                                                                                    
                                                                                                    
                                                                                                    
                                                                                                    
                                                                                                    
                                                                                                    
                           
<?xpacket end="w"?></metadata>
<defs>
    <style>
      .cls-1 {
        fill: #fff;
        fill-rule: evenodd;
      }
    </style>
  </defs>
  <path id="World_Icon" data-name="World Icon" class="cls-1" d="M950.01,2264.01a10,10,0,1,0,10,10A10,10,0,0,0,950.01,2264.01Zm-8.122,10a8.131,8.131,0,0,1,4.786-7.41c0.313-.13.726-0.08,0.562,0.34-0.674,1.28-2.553,1.33-2.7,3.46a5.1,5.1,0,0,0,1.758,4.04c0.788,0.83.3,2.13,0.988,4.23a6.884,6.884,0,0,0,1.42,2.62h0c0.351,0.36.26,0.8-.262,0.69a0.014,0.014,0,0,1-.015-0.01c-0.031,0-.054-0.01-0.072-0.01A8.124,8.124,0,0,1,941.888,2274.01Zm9.818,7.94a0.483,0.483,0,0,0-.125.03l-0.182.03a0.861,0.861,0,0,1-.639-1h0a5.246,5.246,0,0,1,.424-1.49c0.722-1.64,3.131-2.7,1.445-4.1s-4.623.16-5.2-1.18c-0.759-1.75.983-2.5,1.614-1.92s0.9,0.96,1.217.85c0.428-.15.043-0.63-0.012-1.21-0.1-1.01.146-1.23,1.434-2.05a1.362,1.362,0,0,0,.384-2.09,1.873,1.873,0,0,0-2.052-.19,1.022,1.022,0,0,1-1.591-.72,0.319,0.319,0,0,0-.01-0.06,1.589,1.589,0,0,1-.025-0.18,0.755,0.755,0,0,1,.682-0.73c0.31-.03.625-0.05,0.944-0.05a8.113,8.113,0,0,1,7.528,5.07,1.75,1.75,0,0,1-1.633,2.14c-1.4.24-1.012,1.39,0.193,2.02s1.577,1.58,1.315,2.23h0A8.13,8.13,0,0,1,951.706,2281.95Z" transform="translate(-940 -2264)"/>
</svg>
