<svg xmlns="http://www.w3.org/2000/svg" width="22" height="22" viewBox="0 0 22 22">
  <metadata><?xpacket begin="﻿" id="W5M0MpCehiHzreSzNTczkc9d"?>
<x:xmpmeta xmlns:x="adobe:ns:meta/" x:xmptk="Adobe XMP Core 5.6-c138 79.159824, 2016/09/14-01:09:01        ">
   <rdf:RDF xmlns:rdf="http://www.w3.org/1999/02/22-rdf-syntax-ns#">
      <rdf:Description rdf:about=""/>
   </rdf:RDF>
</x:xmpmeta>
                                                                                                    
                                                                                                    
                                                                                                    
                                                                                                    
                                                                                                    
                                                                                                    
                                                                                                    
                                                                                                    
                                                                                                    
                                                                                                    
                                                                                                    
                                                                                                    
                                                                                                    
                                                                                                    
                                                                                                    
                                                                                                    
                                                                                                    
                                                                                                    
                                                                                                    
                                                                                                    
                           
<?xpacket end="w"?></metadata>
<defs>
    <style>
      .cls-1 {
        fill: #383737;
        fill-rule: evenodd;
      }
    </style>
  </defs>
  <path id="Zoom_Icon" data-name="Zoom Icon" class="cls-1" d="M1040.47,2222.6l-0.05-.05c-2.39-2.08-4.05-3.59-4.88-4.36a1.668,1.668,0,0,1-.28-0.25,1.46,1.46,0,0,1-.32-0.91,1.087,1.087,0,0,1,.01-0.18,1.064,1.064,0,0,1,.09-0.35,1.344,1.344,0,0,1,.12-0.24,8.5,8.5,0,0,0-7.59-12.25h-0.06a8.51,8.51,0,0,0-.05,17.02h0.05a8.469,8.469,0,0,0,3.77-.88,0.405,0.405,0,0,1,.09-0.05,1.427,1.427,0,0,1,.54-0.13h0.06a1.411,1.411,0,0,1,.9.32,1.389,1.389,0,0,1,.21.21c0.8,0.81,2.45,2.51,4.54,4.9a0.236,0.236,0,0,1,.05.05,1.952,1.952,0,0,0,2.77-.08A2.006,2.006,0,0,0,1040.47,2222.6Zm-9.5-9.72a0.41,0.41,0,0,1-.4.41h-1.85a0.423,0.423,0,0,0-.42.42h0v1.84a0.414,0.414,0,0,1-.42.41h-0.7a0.406,0.406,0,0,1-.41-0.41v-1.84a0.423,0.423,0,0,0-.42-0.42h-1.84a0.406,0.406,0,0,1-.41-0.41v-0.7a0.42,0.42,0,0,1,.41-0.42h1.84a0.37,0.37,0,0,0,.29-0.12,0.393,0.393,0,0,0,.13-0.29v-1.84a0.412,0.412,0,0,1,.41-0.41h0.7a0.419,0.419,0,0,1,.42.4v1.85h0a0.414,0.414,0,0,0,.42.41h1.83a0.423,0.423,0,0,1,.42.42v0.7Z" transform="translate(-1019 -2204)"/>
</svg>
