<svg xmlns="http://www.w3.org/2000/svg" width="22.031" height="22.03" viewBox="0 0 22.031 22.03">
  <metadata><?xpacket begin="﻿" id="W5M0MpCehiHzreSzNTczkc9d"?>
<x:xmpmeta xmlns:x="adobe:ns:meta/" x:xmptk="Adobe XMP Core 5.6-c138 79.159824, 2016/09/14-01:09:01        ">
   <rdf:RDF xmlns:rdf="http://www.w3.org/1999/02/22-rdf-syntax-ns#">
      <rdf:Description rdf:about=""/>
   </rdf:RDF>
</x:xmpmeta>
                                                                                                    
                                                                                                    
                                                                                                    
                                                                                                    
                                                                                                    
                                                                                                    
                                                                                                    
                                                                                                    
                                                                                                    
                                                                                                    
                                                                                                    
                                                                                                    
                                                                                                    
                                                                                                    
                                                                                                    
                                                                                                    
                                                                                                    
                                                                                                    
                                                                                                    
                                                                                                    
                           
<?xpacket end="w"?></metadata>
<defs>
    <style>
      .cls-1 {
        fill-rule: evenodd;
        opacity: 0.5;
      }
    </style>
  </defs>
  <path id="Basket_Icon" data-name="Basket Icon" class="cls-1" d="M475.42,2367.69c-0.379-.34-2.442-1.93-2.828-2.27a2.228,2.228,0,0,0-1.412-.44H458.845a2.228,2.228,0,0,0-1.412.44c-0.386.34-2.45,1.93-2.828,2.27a1.681,1.681,0,0,0-.6,1.56c0.1,0.72,2.481,16.99,2.481,16.99a1.154,1.154,0,0,0,1.016.75h15.012a1.15,1.15,0,0,0,1.014-.75s2.38-16.27,2.482-16.99A1.681,1.681,0,0,0,475.42,2367.69Zm-4.965,5.7s-0.059.45-.138,1.04c0,0.02,0,.04-0.007.06-0.008.07-.017,0.14-0.028,0.21a5.478,5.478,0,0,1-2.257,3.64,5.253,5.253,0,0,1-6.026,0,5.474,5.474,0,0,1-2.257-3.64c-0.01-.07-0.02-0.14-0.028-0.21,0-.02,0-0.04-0.008-0.06-0.077-.59-0.137-1.04-0.137-1.04a0.547,0.547,0,0,1,0-.07,0.713,0.713,0,0,1,0-.08,0.826,0.826,0,0,1,.213-0.49,0.817,0.817,0,0,1,.571-0.28h0.335a0.806,0.806,0,0,1,.636.36,1.011,1.011,0,0,1,.15.45s0.072,0.45.157,0.97c0.015,0.1.033,0.21,0.051,0.31v0.01a3.513,3.513,0,0,0,1.018,1.82,3.339,3.339,0,0,0,4.624,0,3.506,3.506,0,0,0,1.018-1.82,0.016,0.016,0,0,0,0-.01c0.018-.1.035-0.21,0.051-0.31,0.084-.52.154-0.97,0.157-0.97a1.023,1.023,0,0,1,.149-0.45,0.8,0.8,0,0,1,.637-0.36h0.335a0.817,0.817,0,0,1,.571.28,0.837,0.837,0,0,1,.212.49,0.714,0.714,0,0,1,0,.08A0.548,0.548,0,0,1,470.455,2373.39Zm2.351-4.8H457.221a0.427,0.427,0,0,1-.4-0.43,0.415,0.415,0,0,1,.15-0.32,0.345,0.345,0,0,1,.034-0.03l1.437-1.1h0a0.474,0.474,0,0,1,.1-0.07h0a1.166,1.166,0,0,1,.631-0.22h11.65a1.261,1.261,0,0,1,.663.22h0a0.431,0.431,0,0,1,.087.07h0l1.42,1.09a0.255,0.255,0,0,1,.071.05,0.43,0.43,0,0,1,.134.31A0.426,0.426,0,0,1,472.806,2368.59Z" transform="translate(-454 -2364.97)"/>
</svg>
