<svg xmlns="http://www.w3.org/2000/svg" width="12" height="12" viewBox="0 0 12 12">
  <metadata><?xpacket begin="﻿" id="W5M0MpCehiHzreSzNTczkc9d"?>
<x:xmpmeta xmlns:x="adobe:ns:meta/" x:xmptk="Adobe XMP Core 5.6-c138 79.159824, 2016/09/14-01:09:01        ">
   <rdf:RDF xmlns:rdf="http://www.w3.org/1999/02/22-rdf-syntax-ns#">
      <rdf:Description rdf:about=""/>
   </rdf:RDF>
</x:xmpmeta>
                                                                                                    
                                                                                                    
                                                                                                    
                                                                                                    
                                                                                                    
                                                                                                    
                                                                                                    
                                                                                                    
                                                                                                    
                                                                                                    
                                                                                                    
                                                                                                    
                                                                                                    
                                                                                                    
                                                                                                    
                                                                                                    
                                                                                                    
                                                                                                    
                                                                                                    
                                                                                                    
                           
<?xpacket end="w"?></metadata>
<defs>
    <style>
      .cls-1 {
        fill: #b4bbc2;
        fill-rule: evenodd;
      }
    </style>
  </defs>
  <path id="Clock_Icon" data-name="Clock Icon" class="cls-1" d="M964.6,5513.99a0.505,0.505,0,0,1-.45.5h-3.395a0.286,0.286,0,0,1-.257-0.27h0v-2.64a0.507,0.507,0,0,1,1.014.01v1.6h0c0,0.01,0,.01,0,0.02l0,0.01v0.01a0.269,0.269,0,0,0,.249.25l2.368,0.01A0.5,0.5,0,0,1,964.6,5513.99Zm-3.594-6a6,6,0,1,1-6,6A6,6,0,0,1,961.007,5507.99Zm4.445,6a4.444,4.444,0,1,0-4.445,4.45A4.444,4.444,0,0,0,965.452,5513.99Z" transform="translate(-955 -5508)"/>
</svg>
