<svg xmlns="http://www.w3.org/2000/svg" width="14" height="14" viewBox="0 0 14 14">
  <metadata><?xpacket begin="﻿" id="W5M0MpCehiHzreSzNTczkc9d"?>
<x:xmpmeta xmlns:x="adobe:ns:meta/" x:xmptk="Adobe XMP Core 5.6-c138 79.159824, 2016/09/14-01:09:01        ">
   <rdf:RDF xmlns:rdf="http://www.w3.org/1999/02/22-rdf-syntax-ns#">
      <rdf:Description rdf:about=""/>
   </rdf:RDF>
</x:xmpmeta>
                                                                                                    
                                                                                                    
                                                                                                    
                                                                                                    
                                                                                                    
                                                                                                    
                                                                                                    
                                                                                                    
                                                                                                    
                                                                                                    
                                                                                                    
                                                                                                    
                                                                                                    
                                                                                                    
                                                                                                    
                                                                                                    
                                                                                                    
                                                                                                    
                                                                                                    
                                                                                                    
                           
<?xpacket end="w"?></metadata>
<defs>
    <style>
      .cls-1 {
        fill: #b4bbc2;
        fill-rule: evenodd;
      }
    </style>
  </defs>
  <path id="Search_Icon" data-name="Search Icon" class="cls-1" d="M166.656,2477.83a0.053,0.053,0,0,1-.03-0.02c-1.524-1.33-2.58-2.29-3.107-2.78a0.779,0.779,0,0,1-.175-0.16,0.914,0.914,0,0,1-.208-0.58,0.708,0.708,0,0,1,.008-0.11,0.867,0.867,0,0,1,.057-0.22,0.849,0.849,0,0,1,.078-0.16,5.406,5.406,0,0,0-4.833-7.79,0.049,0.049,0,0,0-.035-0.01,5.415,5.415,0,0,0-.034,10.83c0.012,0,.023.01,0.035,0.01a5.374,5.374,0,0,0,2.4-.57,0.134,0.134,0,0,1,.059-0.02,0.955,0.955,0,0,1,.339-0.09h0.039a0.9,0.9,0,0,1,.575.21,0.786,0.786,0,0,1,.134.13c0.5,0.51,1.554,1.6,2.887,3.12l0.032,0.03a1.243,1.243,0,0,0,1.764-.05A1.282,1.282,0,0,0,166.656,2477.83Zm-5.4-3.55a4.055,4.055,0,0,1-1.531.96,4.129,4.129,0,0,1-1.315.21h-0.027a4.03,4.03,0,0,1,.026-8.06h0.027a4.032,4.032,0,0,1,3.762,5.43A4.033,4.033,0,0,1,161.258,2474.28Z" transform="translate(-153 -2466)"/>
</svg>
