<svg xmlns="http://www.w3.org/2000/svg" width="12" height="13" viewBox="0 0 12 13">
  <metadata><?xpacket begin="﻿" id="W5M0MpCehiHzreSzNTczkc9d"?>
<x:xmpmeta xmlns:x="adobe:ns:meta/" x:xmptk="Adobe XMP Core 5.6-c138 79.159824, 2016/09/14-01:09:01        ">
   <rdf:RDF xmlns:rdf="http://www.w3.org/1999/02/22-rdf-syntax-ns#">
      <rdf:Description rdf:about=""/>
   </rdf:RDF>
</x:xmpmeta>
                                                                                                    
                                                                                                    
                                                                                                    
                                                                                                    
                                                                                                    
                                                                                                    
                                                                                                    
                                                                                                    
                                                                                                    
                                                                                                    
                                                                                                    
                                                                                                    
                                                                                                    
                                                                                                    
                                                                                                    
                                                                                                    
                                                                                                    
                                                                                                    
                                                                                                    
                                                                                                    
                           
<?xpacket end="w"?></metadata>
<defs>
    <style>
      .cls-1 {
        fill: #24aa98;
        fill-rule: evenodd;
      }
    </style>
  </defs>
  <path id="Share_Icon" data-name="Share Icon" class="cls-1" d="M279.753,4341.67a2.211,2.211,0,0,0-.892.18h-0.017a0.989,0.989,0,0,1-.453.1,1.039,1.039,0,0,1-.5-0.12,0.658,0.658,0,0,1-.123-0.07l-2.851-1.64c0-.01-0.008-0.01-0.012-0.01s-0.021-.01-0.031-0.02a0.68,0.68,0,0,1,.013-1.18l2.9-1.67a0.07,0.07,0,0,1,.008-0.01c0.025-.01.052-0.03,0.078-0.04,0-.01,0-0.01,0-0.01a1.167,1.167,0,0,1,.965-0.03c0.007,0,.015.01,0.022,0.01a2.152,2.152,0,1,0-1.351-2.15,1.015,1.015,0,0,1-.472.8,0.506,0.506,0,0,1-.105.07l-2.669,1.54h0a1,1,0,0,1-.647.2,1.1,1.1,0,0,1-.365-0.06,0.9,0.9,0,0,1-.156-0.06,2.323,2.323,0,0,0-.839-0.16,2.165,2.165,0,1,0,.889,4.15c0.009,0,.018-0.01.027-0.01a1.12,1.12,0,0,1,.982.05,0.072,0.072,0,0,1,.041.02l2.74,1.58,0.1,0.06a1.035,1.035,0,0,1,.472.81A2.247,2.247,0,1,0,279.753,4341.67Z" transform="translate(-270 -4333)"/>
</svg>
