<svg xmlns="http://www.w3.org/2000/svg" width="17" height="17" viewBox="0 0 17 17">
  <metadata><?xpacket begin="﻿" id="W5M0MpCehiHzreSzNTczkc9d"?>
<x:xmpmeta xmlns:x="adobe:ns:meta/" x:xmptk="Adobe XMP Core 5.6-c138 79.159824, 2016/09/14-01:09:01        ">
   <rdf:RDF xmlns:rdf="http://www.w3.org/1999/02/22-rdf-syntax-ns#">
      <rdf:Description rdf:about=""/>
   </rdf:RDF>
</x:xmpmeta>
                                                                                                    
                                                                                                    
                                                                                                    
                                                                                                    
                                                                                                    
                                                                                                    
                                                                                                    
                                                                                                    
                                                                                                    
                                                                                                    
                                                                                                    
                                                                                                    
                                                                                                    
                                                                                                    
                                                                                                    
                                                                                                    
                                                                                                    
                                                                                                    
                                                                                                    
                                                                                                    
                           
<?xpacket end="w"?></metadata>
<defs>
    <style>
      .cls-1 {
        fill: #c6ccd2;
        fill-rule: evenodd;
      }
    </style>
  </defs>
  <path id="Star_Icon" data-name="Star Icon" class="cls-1" d="M852.285,1466.84h-4.509v-0.01a1.214,1.214,0,0,1-1.135-.82c-0.013-.04-0.025-0.08-0.034-0.11l-1.324-4.26-0.033-.1a0.794,0.794,0,0,0-1.522.06h0l-1.339,4.28s0,0,0,.01a1.308,1.308,0,0,1-.042.13,1.22,1.22,0,0,1-1.13.81v0.01H836.7a0.825,0.825,0,0,0-.693.83,0.874,0.874,0,0,0,.318.68l0.037,0.03,3.5,2.67h0a1.281,1.281,0,0,1,.534,1.05,1.363,1.363,0,0,1-.032.29,1.413,1.413,0,0,1-.066.21l-1.329,4.27a0.052,0.052,0,0,0,0,.02l-0.011.03a0.886,0.886,0,0,0-.033.24,0.83,0.83,0,0,0,.808.85,0.709,0.709,0,0,0,.4-0.12l0.139-.1h0l3.479-2.65a0.293,0.293,0,0,1,.076-0.05,1.118,1.118,0,0,1,.669-0.21,1.2,1.2,0,0,1,.648.19,0.763,0.763,0,0,1,.122.1h0l3.459,2.63,0.1,0.07c0,0.01,0,.01,0,0.01a0.853,0.853,0,0,0,.42.12,0.829,0.829,0,0,0,.807-0.85,0.865,0.865,0,0,0-.037-0.25,0.294,0.294,0,0,1-.012-0.04l-1.335-4.29a0.915,0.915,0,0,1-.053-0.17,1.271,1.271,0,0,1-.036-0.3,1.284,1.284,0,0,1,.456-0.99,0.493,0.493,0,0,1,.093-0.07l3.466-2.64h0l0.106-.08a0.875,0.875,0,0,0,.283-0.64A0.826,0.826,0,0,0,852.285,1466.84Z" transform="translate(-836 -1461)"/>
</svg>
