<svg xmlns="http://www.w3.org/2000/svg" width="17" height="17" viewBox="0 0 17 17">
  <metadata><?xpacket begin="﻿" id="W5M0MpCehiHzreSzNTczkc9d"?>
<x:xmpmeta xmlns:x="adobe:ns:meta/" x:xmptk="Adobe XMP Core 5.6-c138 79.159824, 2016/09/14-01:09:01        ">
   <rdf:RDF xmlns:rdf="http://www.w3.org/1999/02/22-rdf-syntax-ns#">
      <rdf:Description rdf:about=""/>
   </rdf:RDF>
</x:xmpmeta>
                                                                                                    
                                                                                                    
                                                                                                    
                                                                                                    
                                                                                                    
                                                                                                    
                                                                                                    
                                                                                                    
                                                                                                    
                                                                                                    
                                                                                                    
                                                                                                    
                                                                                                    
                                                                                                    
                                                                                                    
                                                                                                    
                                                                                                    
                                                                                                    
                                                                                                    
                                                                                                    
                           
<?xpacket end="w"?></metadata>
<defs>
    <style>
      .cls-1 {
        fill: #65abd0;
        fill-rule: evenodd;
      }
    </style>
  </defs>
  <path id="Comments_Icon" data-name="Comments Icon" class="cls-1" d="M1006.51,648a8.352,8.352,0,0,0-8.5,8.191,7.942,7.942,0,0,0,1.346,4.425,1.144,1.144,0,0,1,.1.153h0a1.207,1.207,0,0,1,.161.6c0,0.073-.792,3.079-0.792,3.079h0a0.438,0.438,0,0,0,.336.531,0.482,0.482,0,0,0,.272-0.017l0.072-.033,2.517-1.157c0.04-.021.08-0.04,0.12-0.058h0a1.348,1.348,0,0,1,.5-0.1,1.383,1.383,0,0,1,.46.081s0,0,.01,0a0.674,0.674,0,0,0,.07.028,8.7,8.7,0,0,0,3.32.652A8.2,8.2,0,1,0,1006.51,648Zm-3.54,9.5a1.2,1.2,0,1,1,1.24-1.2A1.215,1.215,0,0,1,1002.97,657.5Zm3.54,0a1.2,1.2,0,1,1,1.24-1.2A1.221,1.221,0,0,1,1006.51,657.5Zm3.55,0a1.2,1.2,0,1,1,1.24-1.2A1.215,1.215,0,0,1,1010.06,657.5Z" transform="translate(-998 -648)"/>
</svg>
