<svg xmlns="http://www.w3.org/2000/svg" width="19.969" height="17" viewBox="0 0 19.969 17">
  <metadata><?xpacket begin="﻿" id="W5M0MpCehiHzreSzNTczkc9d"?>
<x:xmpmeta xmlns:x="adobe:ns:meta/" x:xmptk="Adobe XMP Core 5.6-c138 79.159824, 2016/09/14-01:09:01        ">
   <rdf:RDF xmlns:rdf="http://www.w3.org/1999/02/22-rdf-syntax-ns#">
      <rdf:Description rdf:about=""/>
   </rdf:RDF>
</x:xmpmeta>
                                                                                                    
                                                                                                    
                                                                                                    
                                                                                                    
                                                                                                    
                                                                                                    
                                                                                                    
                                                                                                    
                                                                                                    
                                                                                                    
                                                                                                    
                                                                                                    
                                                                                                    
                                                                                                    
                                                                                                    
                                                                                                    
                                                                                                    
                                                                                                    
                                                                                                    
                                                                                                    
                           
<?xpacket end="w"?></metadata>
<defs>
    <style>
      .cls-1 {
        fill: #db7560;
        fill-rule: evenodd;
      }
    </style>
  </defs>
  <path id="Heart_Icon" data-name="Heart Icon" class="cls-1" d="M900.034,648.511a5.093,5.093,0,0,0-6.6,2.048h0a0.094,0.094,0,0,1-.012.022,0.021,0.021,0,0,0,0,.007,0.512,0.512,0,0,1-.874,0s0-.005,0-0.007a0.155,0.155,0,0,1-.012-0.022h0a5.092,5.092,0,0,0-6.6-2.048,5.246,5.246,0,0,0-2.455,6.934c0.954,2.055,6.32,7.134,8.541,9.187h0a1.414,1.414,0,0,0,1.925,0h0c2.219-2.049,7.591-7.134,8.545-9.191A5.243,5.243,0,0,0,900.034,648.511Z" transform="translate(-883 -648)"/>
</svg>
