<svg xmlns="http://www.w3.org/2000/svg" width="235" height="147" viewBox="0 0 235 147">
  <metadata><?xpacket begin="﻿" id="W5M0MpCehiHzreSzNTczkc9d"?>
<x:xmpmeta xmlns:x="adobe:ns:meta/" x:xmptk="Adobe XMP Core 5.6-c138 79.159824, 2016/09/14-01:09:01        ">
   <rdf:RDF xmlns:rdf="http://www.w3.org/1999/02/22-rdf-syntax-ns#">
      <rdf:Description rdf:about=""/>
   </rdf:RDF>
</x:xmpmeta>
                                                                                                    
                                                                                                    
                                                                                                    
                                                                                                    
                                                                                                    
                                                                                                    
                                                                                                    
                                                                                                    
                                                                                                    
                                                                                                    
                                                                                                    
                                                                                                    
                                                                                                    
                                                                                                    
                                                                                                    
                                                                                                    
                                                                                                    
                                                                                                    
                                                                                                    
                                                                                                    
                           
<?xpacket end="w"?></metadata>
<defs>
    <style>
      .cls-1 {
        fill: #dee2e7;
        fill-rule: evenodd;
      }
    </style>
  </defs>
  <path id="USA_Map" data-name="USA Map" class="cls-1" d="M681.54,1871.18l-0.042-.47-0.294-.65,0.483-.12,0.189,0.61s0.188,0.71.188,0.79a0.977,0.977,0,0,1-.231.32Zm25.914-45.41-0.5.17-0.882.8-1.258,1.43h-0.336a0.8,0.8,0,0,1-.252-0.54l-0.462.04-0.251.38-0.63.38-0.252.37,0.42,0.38-0.126.17-0.126.72-0.5-.05v-0.42l-0.084-.33-0.377.08-0.462-.84-0.545.34,0.335,0.37,0.084,0.3-0.21.34,0.084,0.8,0.042,0.42-0.419.67-0.756.13-0.084.75-1.385.8-0.335.13-0.42-.38-0.8.93,0.251,0.84-0.377.33-0.042,1.14-0.292,1.63-0.028-.01-0.254.77-0.222.27,0.051-.02,0.75,1.15-0.629,1.34-0.084.38,0.5,0.68,0.293-.21h0.462l0.587,0.67,1.008,1.55,0.923,0.13,0.588-.25,0.461-.46-0.21-.72-0.545-.42-0.378.21-0.252-.34,0.126-.12,0.546-.04,0.461,0.21,0.5,0.63,0.252,0.75,0.084,0.64-1.092.37-1.007.51-1.007,1.18-0.5.38v-0.26l0.629-.38,0.126-.46-0.21-.8-0.755.38-0.21.38,0.126,0.59-0.537.26-0.713-1.18-0.881-1.14-0.538-.47-0.011.01,0.567,0.5,0.858,1.12,0.7,1.15-0.778.42-0.336-.04-0.294.46-0.629.51-0.756.25,0-.01-2.022.83-1.343.29-0.713.38-0.21-.17-0.5.55-0.923.84-1.109,1.02-0.492-.5h0l0.477,0.52,0.207,0.44-0.5.46,0.084,0.34,0.336-.09,0.378-.33,0.587-.68,0.294-.17,0.42,0.17,0.587,0.04,2.057-1.01,0.755-.71,0.336-.38,1.091,0.42-0.881.93-1.008.75-1.846,1.39-0.671.25-1.511.51-1.049.29-0.3-.13,0-.06-0.015.26-0.546.51-0.293.25,0.126,0.13,0.713-.09,0.294-.21,0.42,0.89,0.041,2.44,0.168,0.29-0.293,1.43-0.8,1.68-0.713,1.06-0.21,1.26-0.546.63H684.9l-0.084-.72,0.209-.25-0.041-.38-1.05-.17-1.259-.59-0.828-.74,0.772,0.7,0.5,0.93,0.462,1.22,0.923,0.63,0.252-.13,0.586,1.92h0l0.113,1.28-0.521,1.05-1.216.51,1.145-.45-0.2.83-0.758.99-0.108,1.19,0.119,0.88-0.474,1.3-0.562.5-0.382-1.21,0.116-1.42,0.412-1.09,0.2-.8-0.037-.51h0l-0.336-.14-0.84-1.08-0.42.21-1.007-.13-0.672-.88,0.084-.89,0.42-.33-0.42-.47-0.294.51-0.125.04-0.084-.92,0.545-.26-0.126-1.43-0.461-.08-0.084-.3,0.335-.96,0.378-.42-0.126-.26-0.5.42-0.5.34a2.668,2.668,0,0,0-.126.55,1.761,1.761,0,0,1-.378.59l0.336,0.33,0.042,0.55-0.336,1.39,0.546,1.43,0.629,0.55v0.46l0.378,0.55-0.252.54-0.545-.08-0.8-.25h0l0.8,0.25,0.5,0.08,0.186,0.81,0.828,0.1,0.225,0.31-0.114,1.23,0.357,0.28-0.125.5,0.32,0.21-0.058.36-0.7-.02,0.023,0.42,0.592,0.4,0.031,0.37,0.461,0.46,0.127,0.66-0.662.36,0.408,0.39,1.506-.44,0.929,1.55H684.1l0.541,1.28,0.923,1.68,0.63,0.63,0.168,0.59-0.63.04,0.21,0.17-0.084,1.09-0.671.34-0.168.55-0.336.75-0.965.43-0.63-.09-0.377-.04-0.42-.34,0.084,0.34v0.25h0.5l0.21,0.34-0.5,1.64h1.091l0.168,0.42,0.587-.59,0.336-.13-0.5.93-0.8,1.26h-0.336l-0.293-.12-0.714.16-1.343.64-1.678,1.38-0.882,1.22-0.5,1.69-0.126.63-1.217.12-1.372.34h0l-1.407,1.42-0.672,1.6-0.125,1.64-0.42.21-0.294.72-0.629.17-0.546.92-0.713.72-0.588.88-0.42.21-0.923.89-0.755.04,0.252,0.84-1.3,1.43-0.546.34-0.461.25-0.669-.34,0.018,0.06,0.672,0.34,0.5-.18,0.133,0.35-0.866,1.62,0.126,0.68-0.378,1.09-0.587,2.61,0.2,1.63,0.573,1.85,0.969,2.54,1.384,2.44,0.966,1.64,1.259,1.43,1.049,0.97,0.42,0.76-0.294.33-0.21.34,0.755,1.93,0.756,0.76,0.671,1.39,0.923,1.51L675,1936.4l0.336,1.98,0.126,3.11,0.168,0.46-0.084.89-0.629.33,0.083,0.51-0.167.5,0.084,0.64,0.126,0.5-0.714.84-0.8.38-1.007.04-0.378.42-0.63.26-0.335-.13-0.294-.25-0.084-.76-0.21-.88-0.881-1.35-0.923-.59-1.008-.08-0.21.33-0.8-1.13-0.168-.93-0.671-1.05-0.462-.29-0.419.54-0.462-.08-0.546-1.31-0.755-1.01-0.756-1.38-0.671-.8-0.923-.97,0.545-.63,0.839-1.43-0.041-.42-1.175-.26-0.42.17,0.084,0.17,0.671,0.25-0.378,1.18-0.209.13-0.462-1.05-0.336-1.27-0.084-.71,0.378-1.22v-2.48l-0.8-.97-0.336-.8-1.343-.34-0.5-.17-0.42-.67-0.881-.42-0.294-.88-0.714-.26-0.629-.96-1.091-.38-0.756-.38h-0.671l-1.049.21-0.042.5,0.209,0.26-0.126.29-0.8-.04-0.965.92-0.923.51h-1.008l-0.839.34-0.084-.72-0.419-.5-0.756-.3-0.42-.38-2.1-1.01-1.972-.46-1.134.17-1.552.12-1.553.55-0.745.13h0l-1.438.67-0.714-.08,0.714-.51v-0.25l-0.8-1.56-0.587-.16-0.378,1.13-0.336.72-0.168-.04h-0.7l-0.009.04h-1.343l-0.378-.21-0.546-.08-1.762.5-0.462-.21-0.672,1.1-0.286.2-0.291-.65-0.3-1.01-0.3-.27,0.273,0.26,0.3,1.04,0.275,0.62-0.494.9-0.462.5,0.252,0.47,0.8,0.17,0.167-.68,0.5-.54,0.378-.05,0.084,0.72,0.335,0.5-0.461.8h-0.84v0.13l0.462,0.25-0.042.17-0.587-.08-0.294.71,0.839,0.59,1.511,0.21,0.881,0.72h0.336v0.37l-0.588.8-0.294-.25h-0.755l-0.252-.38-1.049-.5s-0.881-.17-1.091-0.17a1.121,1.121,0,0,1-.168-0.8l-0.168-.21-0.293.34-0.546.12,0.042,0.38-0.21.42,0.546,0.09-0.21.12-0.588.89-0.881.33-0.168-.17,0.588-.21-0.21-.75-0.336-.26-0.462.38-0.671.17-0.252.63-0.923.34-2.182-.93-0.42-.42,0.336-.21,0.209-.42-0.461-.46-1.175-.09-0.084-.58-0.378-.64-0.839-.16-0.462.25-0.461-.38s-0.63.21-.8,0.25a0.5,0.5,0,0,0-.209.38l0.713,0.42,0.671-.12,0.84,0.29-0.21.55-0.839-.26-0.84-.29-0.965.38-1.679-.3-2.686-.92-3.144-.06-1.192.39,0,0.02-1.471.41-2.56,1.18-0.252.51-0.671.5-0.546.38-0.336.21-1.468,1.39-0.714.55-1.385.84-1.469.63-1.636.88-0.462.38-1.511.93-0.881.16-1.007,1.44-1.049.08-0.252.5,0.587,0.51-0.377,1.43-0.336,1.18-0.294,1.01-0.21,1.18,0.21,0.63,0.462,1.81,0.252,1.59,0.461,0.72-0.252.38-0.8.5-1.469-1.01-1.427-.29-0.336.13-0.839-.17-1.091-.8-1.343-.3-1.972-.88-0.546-1.01-0.336-1.68-0.839-.51-0.168-.59,0.168-.17,0.084-.88-0.336-.17-0.168-.25,0.336-1.14-0.42-.58-0.839-.34-0.881-1.14-0.923-1.72-1.092-.68,0.043-.5-1.385-3.2-0.21-1.09-0.462-.51-0.042-.38-1.553-1.38-0.671-.8v-0.3l-0.672-.54-1.762-.3-1.931-.17-0.8-.59-1.175.47-0.923.38-0.588.84-0.252.96-1.133,1.6-0.629.63-0.672-.25-0.462-.29-0.5-.17-1.007-.59v-0.17l-0.462-.5-1.343-.55-1.93-2.02-0.588-1.22v-2.1l-0.839-1.69-0.126-.71-0.42-.25-0.294-.55-1.3-.55-0.335-.42-1.847-2.06-0.336-.84-1.217-.59-0.377-1.14-0.672-.75-0.5-.13-0.168-1.21h-0.033l0.2,1.23-7.588-.73-0.336,2.6-4.014-.51v-0.01l-6.457-.7-3.19-.63-4.364-2.61-3.819-2.23-3.148-1.98-4.91-2.78-0.126-.25,0.084-.38,0.682-.56,0.979-.24,0.173-.25-0.185.25-1.023.13-3.6-.35-5.119-.72-2.6-.38-0.126-.46v-2.44l-0.084-.84-0.672-1.09-0.209-.59-1.008-1.1-0.82.44-0.713-.04-0.84-.21-0.084-.25,0.378-.17-0.168-.84-0.378-.55-1.259-.21-1.007-.55-0.294-.59-0.671-1.26-0.755-.8h-0.756l-1.007-.55-1.175-.46-1.091-.12-0.63-.72,0.126-.5,0.462-1.86,0.21-.5v-0.63l-0.42-.25-0.126-.76-0.378-.67-0.881-1.52-0.336-.8-0.377-1.22-0.42-1.39-0.84-1.13-0.125-.76,0.21-1.01h0.293l0.546-.42,0.294-.93-0.252-.71-0.714-.13-0.5-.67-0.546-.97-0.042-2.14,0.168-.51,0.168-.59,0.126-.63-1.469-1.64v-0.55l0.084-.12,0.084-.84-0.336-1.06-0.587-1.26-0.714-1.18-0.461-1.01,0.251-.96,0.168-1.52,0.462-.8,0.084-1.68-0.294-.93-0.42-1.09L473,1850.21l0.21-.85,0.377-1.09,0.462-.21,0.084-.3,0.8-.67,1.343-3.07,0.042-1.94,0.392-1.23,4.8,1.13v-0.01l-4.783-1.12-0.1-3.14,0.21-2.23,0.5-.76,2.1-3.28,1.678-3.54,1.3-3.66,0.84-1.68,0.839-2.61,0.587-1.68,1.506-.54,0.04,0.01s0,0,0-.01H486.2l-0.923.32-0.588-.84,0.085-.76,0.713-.08,0.42-1.05-0.672-.3,0.042-.96,1.133-.17-0.713-.72-0.378-1.85,0.168-.76v-2.06l-0.462-.84,0.588-2.44,0.545,0.13,0.63,0.75,0.713,0.68,0.84,0.5,1.175,0.55,0.8,0.17,0.756,0.38,0.881,0.25,0.587-.04v-0.64l0.336-.29,0.546-.34,0.084,0.3,0.084,0.46-0.588.13-0.084.54,0.462,0.38,0.293,0.63,0.168,0.51,0.378-.04,0.042-.34-0.252-.34-0.126-.84,0.21-.46-0.168-.38v-0.59l0.462-.92-0.294-.68-0.629-1.26,0.083-.21,0.294-.21,1.133,0.38,2.518,0.71,2.225,0.51,5.2,1.47,5.959,1.47,3.952,0.84-0.38,1.77,0.006,0.01,0.377-1.76,3.509,0.66-0.362,1.76h0.011l0.369-1.76,8.5,1.81,4.784,0.88,8.394,1.39,7.6,1.05,7.6,0.92,7.963,0.74-0.119,1.16,0.021,0.01,0.12-1.16,5.957,0.55,6.883,0.34,4.826,0.17,7.436,0.14,0.476,1.43-0.071.44h0.018l0.078-.45-0.472-1.42,7.822,0.01,0.084-2.14,0.168-.05,0.587,0.13,0.5,0.21,0.21,1.43,0.378,1.6,0.419,0.42h1.259l0.084,0.38,1.637,0.08v0.55h1.259l0.084-.34,0.294-.29,0.587-.17,0.336,0.25h0.755l1.007,0.68,1.385,0.63,0.63,0.12,0.126-.25,0.378-.13,0.125,0.76,0.672,0.34,0.126-.13,0.336,0.04v0.55l0.671,0.25h0.8l0.42-.21,0.839-.84,0.672-.12,0.21,0.46,0.126,0.34h0.251l0.252-.21,2.308-.09,0.462,0.8h0.168l0.185-.28,1.153-.1-0.159.6-1.023.47-2.4,1.06-1.24.52-0.8.68-0.629.92L611.27,1828l-0.462.21-1.175,1.31-0.335.04-1.124.72-0.077.1,0.251,0.22,0.755,0.13,0.756-.17,1.93-.84,0.756-.51,0.545-.21,0.5,0.38-0.294.3-0.5.8-0.167.5,0.251,0.17,0.462-.25,0.294-.05,0.346-.07,0.168,0.29,0.311,0.04,0.195-.14,0.577,0.79h0l-0.573-.8,0.186-.15,0.713-.21,0.924-.59v-0.25l0.167-.17,1.553-.25,0.63-.51,1.133-.54,0.042-.34,0.5-.76,0.462-.21,0.336-.46,0.587-.59,1.133-.63,1.217-.13,0.294,0.3-0.084.25-0.965.25-0.378.8-0.587.21-0.126.63-0.63.85-0.084.67,0.21,0.13,0.252-.3,0.923-.76,0.336,0.34H624l0.84,0.25,0.378,0.3,0.377,0.8,0.714,0.71,1.007-.04,0.378-.25,0.419,0.33,0.42,0.13,0.336-.21h0.294l0.419-.25,1.049-.93,0.882-.29,1.72-.09,1.175-.5,0.672-.34,0.378,0.04v1.48l0.125,0.08,0.756,0.21,0.5-.13,1.594-.42,0.294-.29,0.378,0.13v1.8l0.839,0.8,0.336,0.17,0.335,0.25-0.335.09-0.21-.09-0.965-.12-0.546.17-0.587-.05-0.84.38h-0.462l-1.51-.33-1.343.04-0.5.67-1.8.17-0.63.21-0.294.8-0.335.29-0.126-.04-0.378-.42-1.175.63H628.4l-0.294-.42-0.21.04-0.5,1.14-0.252,1.05-0.826,1.82H626.31l-0.247.59-0.462.42-0.546,1.22-0.335.63,0.042,0.46,0.377,0.09,0.294-.51,0.507-.21,0.21-.59,0.5-.46,0.714-1.05,1.091-1.64,0.21-.13,0.083,0.25-0.042.59-0.755,1.77-0.713,1.47,0.117,1.09-0.168.67,0.21,0.34-0.042.71-0.5.63-0.126.47,0.168,0.92,0.168,0.89-0.377.67-0.21.76-0.252.8,0.294,0.63,0.168,1.6,0.306,1.17,0.017,0.83h0l-0.535.03,0.52-.03,0.06,1.43,0.378,0.67,0.42,0.46,0.335,0.97,0.21,0.67,0.071,0.24,0.047,0.6,0.074,0.06-0.058-.71,0.8,0.23,0.377,0.26,0.294-.09,0.546-.5,0.715-.41,0.833-.79,0.084-.72,0.63-1.34,0.251-1.56,0.21-1.22-0.377-1.26-0.756-1.69-0.923-1.55,0.084-.72,0.084-.21,0.21-.63-0.126-.29-0.168-1.23,0.419-1.05,0.294-1.6-0.21-.63v-0.29l0.588-.13,0.168-.67-0.168-.21,0.042-.25,0.462-.51,0.713-.29,0.252-1.1,0.5-.21,0.209,0.21-0.168.63-0.335.64v1.09l0.167,0.04,0.924-.55-0.084-1.43-0.084-.42,0.084-.54,0.378-.47,0.671-.08,0.671-.21-0.126-.21-0.545-.13-0.252-.08-0.084-.93,0.756-.59,0.755-.46,0.8,0.59,0.251,0.13,0.168-.17h0.713l1.427,0.88,1.176,0.38H642.5l0.336,0.67,0.629,0.59-0.042.42-0.419-.08-0.21.21,0.21,0.55,0.335,0.21,0.42,0.59,0.084,2.6-0.63.42-0.168.68-0.209.88-0.882.34s-0.084,1.13-.125,1.3a1.511,1.511,0,0,0,.629.55l0.378,0.17,0.294-.17,0.713-.97,0.5-1.3,1.008-.47,0.419-.29,0.672,0.46,0.629,0.84,0.588,2.36,0.839,2.15,0.084,2.48-0.5.25-0.21-.04-0.042-.17-0.273-.16-0.4.79-0.057.93-0.284.09-0.414.41,0.058,1.32-0.52.45-0.545.97-0.041.36h0l1.271-.18,0.618,0.35,0.671,0.38,1.343-.17,0.881,0.8,0.546-.04,1.427-.68,0.755-.12,0.84-.21,1.049-1.01,0.881-.97,1.007-.59,1.582-1.06,0.306,2.04,0.013-.01-0.306-2.02,1.09-.78,0.336-.13,1.387-1.31v-0.01l0.371-.29,0.335-.29,0.252-.42,0.462-.3,0.5-.46,0.126-.42,0.546-.72,0.294-.25-0.042-.25-0.336-.8-0.462-.04-0.5-1.6,0.755-.47,1.133-.37,1.049-.34,0.84-.13,1.637-.04,0.5,0.34,0.42,0.04,0.545-.34,0.672-.29,1.343-.13,0.545-.46,0.462-.84,0.42-.51h0.545l0.5-.29,0.042-.59-0.378-.55-0.084-.38,0.294-.54V1838h-0.462l-0.461-.21-0.21-.3-0.042-.67,1.511-1.43,0.167-.21,0.378-.76,0.756-1.18,0.713-.96,0.546-.63,0.627-.48,0.8-.32,1.427-.34,0.84,0.04,1.175-.38,1.964-.54v0.01l6.758-1.73,0-.04,0.012-1.31,0.378-.5,0.252,0.25,0.168,0.13,0.168-.42h0.232l0,0.01,0.36-.03,0.393,0.1v-0.67l0.34-1.17,0.672-1.22,0.377-1.05-0.5-.63v-1.56l0.209-.25,0.21-.72-0.042-.38-0.042-1.26,0.462-1.26,0.755-2.31,0.546-1.1h0.336l0.335,0.04v0.3l0.336,0.59,0.714,0.17,0.209-.21v-0.26l1.049-.75,0.462-.47,0.378,0.04,1.553,0.64,0.5,0.25,2.351,7.78h1.552l0.21,0.51,0.042,1.26,0.755,0.59h0.21l0.042-.13-0.126-.29,0.714-.04,0.5,0.54,0.588,0.97v0.5Zm-23.664,42.26,1.036-.21-1.074.2-0.212.01h0.25Zm-7.374,2.08,0.182,0.04-0.182-.05v0.01Zm-0.136-3.03,0.218,0.28,0.014-.08-0.231-.22C676.281,1867.07,676.28,1867.08,676.28,1867.08ZM661.8,1916.07l-0.105.15,0.107-.11,0.558,0.04Zm19.71-61.12,0.359-.18v-0.03l-0.351.18C681.517,1854.93,681.513,1854.94,681.511,1854.95Zm5.684-6.05-0.2-.98a0.011,0.011,0,0,1-.012.01l0.209,1.05v-0.08Zm6.829-14.95,0.6,1.95,0.084,0.72h0.016l-0.08-.68-0.618-2C694.027,1833.95,694.025,1833.95,694.024,1833.95Zm1.819,3.76,0.016,0.01-0.121-.77-0.015-.01Zm-0.767,1.79-0.017.01-0.388.58Zm-3.008,5.44,1.224-.24,0-.01,1.41-.42-1.466.42-1.322.27-1.606.36a0.014,0.014,0,0,1-.015.01Zm-4.828,6.3-0.017-.87v0.85l-0.21.42Zm-1.189.92,0.729,0.46,0.031,0.51-0.149.71,0.092,0.83-0.054-.81,0.126-.72-0.042-.55-0.73-.44-0.625-.13Zm-2,5.93v-0.02l-0.365.35Zm-1.194,1.29,0.378-.53-0.016.01-0.419.59-0.216.45Zm-0.882,6.87,0.306,1.16-0.251-.98-0.545-2.53,0-.01Zm-0.277-4.1,0.1,0.25,0.033,0.03Zm0.073-1.3,0,0.02,0,0.02Zm0.093-.42-0.092.42,0.12-.42,0.364-.21-0.376.21-0.339.07-0.282.09,0.184-.06Zm-1.057,1.83,0.566,1.36-0.476-1.19-0.281-.83Zm1.982,16.66,0.22-.05-1.972.42v0.01Zm-10.408,15.19,0.385,0.31-0.39-.32-0.276-.17s0,0-.006.01Zm-7.76,13.52,0-.01-0.335-.93-0.588-.55-0.67-.16,0.02,0.05,0.671,0.17,0.588,0.55ZM647.5,1917.92l0.378,0.38H647.9l-0.4-.39-0.58-.87-0.006-.09-0.061-.01Zm-22.97,1.68h-0.009l-0.077.42Zm-20.649,6.92-0.015-.43-0.018.04Zm-60.548-15.27-0.092-.04-1.042-.06Zm-37-10.45,0.148-.72h-0.021l-0.134.73Zm-0.3-1.91,0.1-.1a0.012,0.012,0,0,0-.013-0.01l-0.131.12Zm-0.542.17,0.019,0.07-0.011-.07,0.377-.12Zm-0.015.77-0.061-.1,0.119-.45-0.007-.04-0.119.51Zm102.079-68.72,0.341-.46-0.35.46-0.047.65h0Zm18.111,6.68,0.436,0.32-0.079-.07-0.356-.26-0.452-2.4,0,0.01Zm35.5,13.27,0.011-.01-0.072-.63Zm31.041-22.98h0l-0.088-.28Zm-51.326,4.31-0.168-.65-0.252-.13,0.084-.29,0.42-.05,0.566-.06a3.647,3.647,0,0,0,.42.48,0.937,0.937,0,0,1,.105.43l-0.336.31Zm-21.589-8.96-0.534.24-0.416-.29,0.475-.54,0.564-.21,1.395-1.01,0.593-.15,0.119,0.12-1.336,1.34ZM493.02,1806.5l-0.189.53-0.356.1s-0.231.02-.231-0.06a5.006,5.006,0,0,1,.377-0.67l-0.44-.15-0.084.38-0.189.17-0.4-.59-0.126-.65,0.525-.05,0.126,0.36,0.4-.42h0.608l0.21,0.4-0.4.44Zm-10.661,84.01-0.042.34-0.84-.02-0.147-.32-0.167-.38,0.86-.02Zm1.406-.02,0.8,0.32-0.231.16-1.175-.06-0.42-.42-0.21-.38,0.315-.17Zm4.217,7.85,0.315,0.5-0.378.06-0.335-.31a2.384,2.384,0,0,1-.189-0.48v-0.57l0.126-.02Zm-0.084-3.39,0.273-.04,0.693,0.52,0.251,0.47-0.147.37-0.4-.14-0.21-.25-0.462-.61v-0.32Zm98.29,47.31,0.4-2.14,0.86-1.79,0.9-1.41,0.818-.93,0.168,0.07-1.238,1.72-1.133,1.71-0.525,1.72-0.084,1.35,0.231,1.6,0.671,1.87,0.126,1.35,0.042,0.37-0.23.07-0.147-1.85-0.714-1.88Zm82.622,8.28,0.378-.61,0.608-.42,0.336,0.12,0.441,0.09,0.105,0.27-0.9.32-1.092.37-0.608.32-0.231-.23,0.629-.17Zm4.071-1.98,1.133-1.09,0.839-1.37,0.378-1.2,0.252-.74,0.189-.12-0.042.88-0.252.44-0.65,1.73-0.966,1.01-1.385,1.09-0.713.55-0.315-.28,0.651-.4Zm13.818-62.63,0.4-.16,0.042-.53-0.168-1.6-0.378-.61-0.167-.48,0.188-.07,0.714,1.43,0.105,1.16-0.042.88-0.881.4-0.735.64-0.294.31-0.272-.04,0.671-.65Zm12.759-39.3,0.474,0.39-0.623.27-0.564.27-0.3-.24,0.593-.69h0.416Zm2.017-16.25,0.4-.4,0.357,0.27,0.146,0.64-0.44.23Zm-0.029,16.55,0.119-.45,0.267,0.03,0.267,0.6-0.327.12-1.009.03,0.119-.15Zm2.652-18.86,0.21,0.46-0.231.21s-0.063.44-.063,0.53a0.507,0.507,0,0,1-.336.06l-0.461-.48,0.356-.59Z" transform="translate(-473 -1804)"/>
</svg>
