<svg xmlns="http://www.w3.org/2000/svg" width="20" height="14" viewBox="0 0 20 14">
  <metadata><?xpacket begin="﻿" id="W5M0MpCehiHzreSzNTczkc9d"?>
<x:xmpmeta xmlns:x="adobe:ns:meta/" x:xmptk="Adobe XMP Core 5.6-c138 79.159824, 2016/09/14-01:09:01        ">
   <rdf:RDF xmlns:rdf="http://www.w3.org/1999/02/22-rdf-syntax-ns#">
      <rdf:Description rdf:about=""/>
   </rdf:RDF>
</x:xmpmeta>
                                                                                                    
                                                                                                    
                                                                                                    
                                                                                                    
                                                                                                    
                                                                                                    
                                                                                                    
                                                                                                    
                                                                                                    
                                                                                                    
                                                                                                    
                                                                                                    
                                                                                                    
                                                                                                    
                                                                                                    
                                                                                                    
                                                                                                    
                                                                                                    
                                                                                                    
                                                                                                    
                           
<?xpacket end="w"?></metadata>
<defs>
    <style>
      .cls-1 {
        fill: #383737;
        fill-rule: evenodd;
      }
    </style>
  </defs>
  <path id="E-mail_Icon" data-name="E-mail Icon" class="cls-1" d="M504.432,726.221a0.517,0.517,0,0,0-.294.091s-8.359,7.085-8.43,7.137a1.186,1.186,0,0,1-1.436,0c-0.069-.051-8.425-7.134-8.425-7.134a0.526,0.526,0,0,0-.294-0.09,0.587,0.587,0,0,0-.563.607v9.818a1.32,1.32,0,0,0,1.266,1.367h17.473a1.319,1.319,0,0,0,1.265-1.367v-9.818A0.586,0.586,0,0,0,504.432,726.221Zm-10.02,5.571a0.941,0.941,0,0,0,1.179,0l8.077-6.675L503.8,725a0.632,0.632,0,0,0,.141-0.4,0.587,0.587,0,0,0-.563-0.608H486.624a0.586,0.586,0,0,0-.562.608,0.623,0.623,0,0,0,.17.435Z" transform="translate(-485 -724)"/>
</svg>
