<svg xmlns="http://www.w3.org/2000/svg" width="14" height="18" viewBox="0 0 14 18">
  <metadata><?xpacket begin="﻿" id="W5M0MpCehiHzreSzNTczkc9d"?>
<x:xmpmeta xmlns:x="adobe:ns:meta/" x:xmptk="Adobe XMP Core 5.6-c138 79.159824, 2016/09/14-01:09:01        ">
   <rdf:RDF xmlns:rdf="http://www.w3.org/1999/02/22-rdf-syntax-ns#">
      <rdf:Description rdf:about=""/>
   </rdf:RDF>
</x:xmpmeta>
                                                                                                    
                                                                                                    
                                                                                                    
                                                                                                    
                                                                                                    
                                                                                                    
                                                                                                    
                                                                                                    
                                                                                                    
                                                                                                    
                                                                                                    
                                                                                                    
                                                                                                    
                                                                                                    
                                                                                                    
                                                                                                    
                                                                                                    
                                                                                                    
                                                                                                    
                                                                                                    
                           
<?xpacket end="w"?></metadata>
<defs>
    <style>
      .cls-1 {
        fill: #383737;
        fill-rule: evenodd;
      }
    </style>
  </defs>
  <path id="Lock_Icon" data-name="Lock Icon" class="cls-1" d="M500.741,799.905h0q-0.037,0-.072-0.009h0a0.617,0.617,0,0,1-.548-0.58v-1.79c0-2.5-2.294-4.519-5.125-4.519s-5.125,2.023-5.125,4.519v1.79a0.616,0.616,0,0,1-.547.58h0q-0.034.006-.072,0.009h0A1.362,1.362,0,0,0,488,801.189v8.5a1.4,1.4,0,0,0,1.474,1.3h11.043a1.4,1.4,0,0,0,1.474-1.3v-8.5A1.363,1.363,0,0,0,500.741,799.905Zm-8.4-2.379a2.676,2.676,0,0,1,5.31,0V799.3a0.635,0.635,0,0,1-.671.59h-3.968a0.635,0.635,0,0,1-.671-0.59v-1.773Z" transform="translate(-488 -793)"/>
</svg>
